<svg id="svg" version="1.1" xmlns="http://www.w3.org/2000/svg" xmlns:xlink="http://www.w3.org/1999/xlink" width="32" height="32" viewBox="-50 -100 500 500"><g id="svgg"><path id="path0" d="M82.170 0.229 C 37.844 3.444,3.291 35.059,0.209 75.223 C -0.223 80.848,0.036 215.508,0.484 218.649 C 6.132 258.185,39.517 287.303,82.521 290.198 C 84.643 290.341,114.212 290.414,169.705 290.414 L 253.677 290.414 252.348 284.914 C 250.034 275.345,250.013 275.013,249.991 249.083 L 249.974 228.601 180.389 228.601 C 111.968 228.601,110.771 228.594,108.781 228.188 C 98.624 226.115,91.210 218.499,89.583 208.469 C 89.140 205.738,89.134 194.990,89.574 192.876 C 90.578 188.049,94.548 183.960,99.447 182.708 C 101.040 182.300,102.103 182.294,176.126 182.294 L 251.189 182.294 251.443 181.194 C 252.040 178.610,253.756 171.614,253.862 171.340 C 253.955 171.095,253.511 171.020,251.399 170.925 C 242.782 170.535,236.491 164.457,235.696 155.753 C 235.348 151.948,235.579 137.460,236.013 135.798 C 237.446 130.322,241.447 126.046,246.953 124.107 L 248.612 123.523 259.298 123.522 C 269.908 123.520,269.995 123.524,271.556 124.009 C 274.447 124.909,277.352 126.790,279.210 128.965 L 280.193 130.116 280.746 129.696 C 281.050 129.465,281.771 128.904,282.347 128.450 C 287.947 124.031,293.405 120.492,298.481 117.988 C 303.292 115.615,307.086 114.252,313.043 112.757 L 315.244 112.205 310.424 112.089 C 306.503 111.995,305.410 111.903,304.557 111.593 C 299.895 109.902,296.726 106.505,295.554 101.947 C 295.150 100.375,295.072 76.853,295.465 74.971 C 296.459 70.203,300.822 65.868,305.658 64.843 C 308.153 64.315,330.483 64.405,332.623 64.952 C 337.616 66.230,341.449 70.244,342.469 75.266 C 342.941 77.588,342.950 99.297,342.480 101.519 C 341.400 106.625,335.992 111.850,331.738 111.897 C 330.845 111.907,331.557 112.205,333.473 112.622 C 335.188 112.995,335.983 113.319,336.962 114.043 L 337.518 114.454 338.471 113.798 C 339.863 112.840,350.206 110.360,351.985 110.557 C 353.332 110.706,362.326 112.805,365.636 113.743 C 370.517 115.125,376.752 117.849,381.180 120.532 C 384.647 122.633,385.032 122.887,387.952 125.001 C 392.984 128.644,394.586 129.901,396.857 131.983 C 398.067 133.093,399.226 134.133,399.433 134.294 C 399.991 134.730,399.867 76.273,399.300 72.080 C 394.150 33.940,363.896 6.052,321.739 0.584 L 318.177 0.122 201.362 0.090 C 137.114 0.072,83.477 0.135,82.170 0.229 M95.507 65.201 C 99.838 66.783,103.217 70.504,104.231 74.807 C 104.704 76.814,104.713 100.085,104.241 101.947 C 103.135 106.313,100.035 109.720,95.598 111.446 L 94.185 111.996 80.880 111.996 L 67.575 111.996 66.162 111.508 C 62.152 110.123,58.926 106.756,57.494 102.462 C 56.949 100.826,56.779 77.700,57.294 75.201 C 58.302 70.315,62.183 66.257,67.096 64.955 C 68.534 64.574,69.358 64.553,81.299 64.596 L 93.976 64.641 95.507 65.201 M153.666 64.849 C 158.569 65.887,162.750 70.089,163.886 75.118 C 164.373 77.277,164.292 100.249,163.791 102.016 C 162.356 107.070,158.292 110.961,153.483 111.884 C 150.851 112.389,127.106 112.079,125.631 111.520 C 121.563 109.979,118.465 106.750,117.060 102.589 C 116.468 100.836,116.250 77.877,116.800 75.208 C 117.828 70.223,122.072 65.908,126.977 64.861 C 129.020 64.424,151.616 64.414,153.666 64.849 M213.166 64.847 C 218.020 65.876,221.870 69.587,223.296 74.612 C 223.645 75.844,223.677 76.999,223.677 88.423 L 223.677 100.891 223.189 102.462 C 221.754 107.076,217.954 110.727,213.491 111.779 C 211.448 112.260,188.072 112.251,186.201 111.768 C 181.708 110.608,178.024 107.037,176.602 102.462 L 176.113 100.891 176.113 88.318 L 176.113 75.746 176.602 74.175 C 178.084 69.407,181.850 65.872,186.529 64.856 C 188.513 64.425,211.139 64.418,213.166 64.847 M273.861 65.110 C 278.067 66.539,281.278 69.798,282.690 74.070 C 283.339 76.034,283.577 98.255,282.981 101.296 C 282.082 105.888,278.710 109.796,274.160 111.520 C 272.696 112.075,248.966 112.389,246.307 111.889 C 241.403 110.966,237.214 106.830,235.909 101.624 C 235.431 99.714,235.493 76.419,235.981 74.656 C 237.336 69.762,241.305 65.897,246.054 64.848 C 248.536 64.300,272.130 64.522,273.861 65.110 M91.732 123.741 C 97.204 124.845,101.952 129.184,103.872 134.835 L 104.442 136.511 104.512 146.469 C 104.589 157.320,104.541 157.940,103.393 160.845 C 101.698 165.138,97.832 168.700,93.138 170.294 L 91.461 170.863 81.637 170.935 C 73.174 170.996,71.578 170.958,70.113 170.663 C 63.608 169.350,58.685 164.374,57.324 157.735 C 56.861 155.477,56.838 138.933,57.294 136.548 C 58.528 130.099,63.982 124.705,70.354 123.632 C 72.363 123.294,89.960 123.384,91.732 123.741 M152.226 123.917 C 157.849 125.572,162.213 130.106,163.670 135.810 C 164.221 137.964,164.501 151.507,164.083 155.785 C 163.391 162.873,159.182 168.145,152.436 170.375 C 150.481 171.021,132.581 171.261,129.714 170.680 C 123.630 169.448,118.943 165.109,117.094 159.000 C 116.453 156.881,116.237 139.409,116.816 136.549 C 118.169 129.871,123.699 124.514,130.225 123.559 C 132.295 123.256,151.016 123.561,152.226 123.917 M212.282 124.077 C 217.676 125.879,221.629 130.086,223.200 135.699 C 223.646 137.293,223.662 137.687,223.667 147.302 L 223.671 157.255 223.086 159.141 C 221.360 164.702,217.432 168.625,211.830 170.384 C 209.390 171.150,190.401 171.150,187.961 170.384 C 182.353 168.623,178.401 164.672,176.715 159.141 L 176.140 157.255 176.057 148.148 C 175.999 141.882,176.050 138.519,176.218 137.367 C 177.112 131.251,181.655 125.897,187.428 124.154 C 189.795 123.439,189.340 123.462,200.524 123.505 L 210.686 123.543 212.282 124.077 M322.787 135.812 C 322.326 135.919,321.688 136.061,321.370 136.126 C 321.052 136.192,320.740 136.329,320.677 136.431 C 320.614 136.533,320.382 136.616,320.163 136.616 C 319.788 136.616,318.282 137.053,317.339 137.436 C 317.108 137.529,316.543 137.724,316.082 137.868 C 315.621 138.013,314.914 138.271,314.510 138.443 C 314.107 138.614,313.588 138.832,313.358 138.928 C 312.825 139.148,310.170 140.339,309.485 140.664 C 308.461 141.151,304.529 143.474,303.013 144.488 C 300.237 146.345,299.554 146.866,295.712 150.053 C 293.672 151.745,290.278 155.381,288.318 157.973 C 288.030 158.354,287.535 158.974,287.218 159.350 C 286.902 159.726,286.642 160.103,286.642 160.186 C 286.642 160.269,286.405 160.634,286.115 160.996 C 285.825 161.359,285.514 161.750,285.424 161.865 C 285.333 161.980,285.192 162.216,285.110 162.389 C 285.028 162.562,284.776 162.986,284.550 163.332 C 284.325 163.677,283.928 164.337,283.670 164.798 C 283.411 165.259,283.083 165.825,282.941 166.056 C 282.799 166.286,282.514 166.828,282.308 167.260 C 282.102 167.693,281.862 168.046,281.774 168.046 C 281.685 168.046,281.613 168.149,281.613 168.276 C 281.613 168.402,281.296 169.180,280.908 170.004 C 280.521 170.829,280.060 171.833,279.886 172.237 C 279.711 172.640,279.415 173.314,279.229 173.735 C 279.042 174.156,278.889 174.645,278.889 174.823 C 278.889 175.000,278.795 175.204,278.680 175.275 C 278.565 175.346,278.470 175.629,278.470 175.904 C 278.470 176.178,278.382 176.458,278.273 176.525 C 278.164 176.592,278.012 177.070,277.934 177.587 C 277.857 178.105,277.710 178.579,277.608 178.642 C 277.506 178.706,277.423 178.982,277.423 179.256 C 277.423 179.531,277.339 179.807,277.238 179.870 C 277.136 179.933,276.985 180.527,276.903 181.192 C 276.821 181.856,276.680 182.493,276.589 182.609 C 276.412 182.834,276.327 183.303,275.957 186.066 C 275.826 187.046,275.611 188.177,275.478 188.580 C 275.152 189.575,275.002 267.856,275.320 271.483 C 275.574 274.378,276.026 277.810,276.213 278.261 C 276.285 278.434,276.393 278.858,276.454 279.204 C 276.811 281.254,277.073 282.371,277.236 282.546 C 277.339 282.655,277.423 283.003,277.423 283.319 C 277.423 283.635,277.509 283.947,277.614 284.012 C 277.719 284.077,277.869 284.506,277.947 284.966 C 278.024 285.426,278.174 285.855,278.279 285.920 C 278.384 285.985,278.470 286.263,278.470 286.537 C 278.470 286.812,278.565 287.095,278.680 287.166 C 278.795 287.237,278.889 287.441,278.889 287.618 C 278.889 288.035,279.542 289.538,281.421 293.452 C 282.391 295.473,283.142 296.838,284.077 298.284 C 284.222 298.507,284.405 298.832,284.484 299.005 C 284.563 299.178,284.728 299.426,284.849 299.556 C 284.971 299.686,285.328 300.204,285.643 300.708 C 286.595 302.233,286.742 302.458,286.857 302.567 C 286.917 302.624,287.360 303.190,287.840 303.824 C 291.492 308.645,297.185 314.101,301.805 317.208 C 302.598 317.741,303.402 318.271,303.592 318.387 C 303.782 318.502,304.233 318.808,304.594 319.068 C 304.955 319.327,305.311 319.539,305.386 319.539 C 305.460 319.539,306.033 319.867,306.659 320.268 C 307.286 320.668,308.035 321.056,308.325 321.128 C 308.615 321.201,308.853 321.322,308.853 321.396 C 308.853 321.471,309.159 321.661,309.534 321.819 C 309.908 321.976,310.686 322.322,311.262 322.587 C 313.406 323.574,314.630 324.095,315.139 324.238 C 315.661 324.384,316.030 324.522,317.025 324.943 C 317.313 325.065,318.114 325.322,318.806 325.516 C 319.497 325.709,320.251 325.939,320.482 326.026 C 321.165 326.285,323.799 326.876,324.264 326.874 C 324.500 326.874,324.783 326.957,324.893 327.061 C 325.119 327.275,325.822 327.385,329.073 327.717 C 330.340 327.846,331.708 328.044,332.111 328.157 C 333.682 328.598,346.700 328.059,347.993 327.500 C 348.258 327.385,348.794 327.292,349.186 327.292 C 349.577 327.292,349.955 327.197,350.026 327.082 C 350.097 326.967,350.362 326.873,350.615 326.873 C 351.140 326.874,353.799 326.290,354.426 326.036 C 354.657 325.943,355.411 325.709,356.103 325.516 C 356.794 325.322,357.548 325.085,357.779 324.987 C 358.009 324.890,358.669 324.650,359.246 324.454 C 359.822 324.258,360.774 323.873,361.362 323.599 C 361.950 323.325,362.523 323.101,362.637 323.101 C 363.048 323.101,368.691 320.118,370.770 318.802 C 376.693 315.054,384.635 307.738,387.469 303.422 C 387.664 303.124,388.206 302.362,388.674 301.729 C 389.141 301.095,389.612 300.373,389.720 300.125 C 389.828 299.877,390.007 299.618,390.117 299.550 C 390.228 299.482,390.527 299.025,390.782 298.534 C 391.037 298.044,391.306 297.596,391.380 297.538 C 391.453 297.480,391.734 297.009,392.002 296.490 C 392.270 295.972,392.760 295.029,393.090 294.395 C 393.618 293.378,394.677 291.092,395.174 289.890 C 395.269 289.660,395.499 289.127,395.683 288.706 C 395.868 288.285,396.019 287.796,396.019 287.618 C 396.019 287.441,396.113 287.237,396.228 287.166 C 396.344 287.095,396.438 286.852,396.438 286.627 C 396.438 286.402,396.532 286.030,396.647 285.801 C 396.763 285.572,396.943 285.210,397.049 284.997 C 397.155 284.783,397.307 284.169,397.388 283.632 C 397.468 283.095,397.617 282.604,397.719 282.541 C 397.821 282.478,397.905 282.195,397.905 281.913 C 397.905 281.630,397.997 281.234,398.109 281.034 C 398.221 280.834,398.414 280.058,398.537 279.309 C 398.661 278.559,398.856 277.475,398.972 276.899 C 399.088 276.323,399.273 274.908,399.383 273.756 C 399.493 272.603,399.683 270.906,399.806 269.984 C 400.039 268.239,399.959 192.468,399.723 190.361 C 399.568 188.985,399.235 186.848,398.972 185.542 C 398.856 184.966,398.661 183.882,398.537 183.133 C 398.414 182.383,398.221 181.607,398.109 181.407 C 397.997 181.207,397.905 180.811,397.905 180.529 C 397.905 180.246,397.819 179.961,397.715 179.897 C 397.610 179.832,397.460 179.308,397.381 178.732 C 397.302 178.156,397.151 177.632,397.047 177.568 C 396.942 177.503,396.857 177.226,396.857 176.951 C 396.857 176.677,396.775 176.401,396.675 176.339 C 396.574 176.277,396.435 175.942,396.366 175.595 C 396.296 175.247,396.048 174.568,395.815 174.084 C 395.581 173.601,395.390 173.120,395.390 173.015 C 395.390 172.643,392.588 166.885,391.630 165.289 C 391.399 164.904,391.021 164.242,390.789 163.817 C 390.557 163.393,390.266 162.983,390.142 162.906 C 390.018 162.830,389.827 162.564,389.717 162.316 C 389.607 162.068,389.353 161.620,389.154 161.320 C 388.412 160.209,387.952 159.553,387.745 159.317 C 387.628 159.183,387.108 158.534,386.590 157.876 C 384.605 155.355,381.513 151.988,379.981 150.680 C 379.525 150.290,378.710 149.559,378.171 149.056 C 377.632 148.552,377.102 148.140,376.992 148.140 C 376.883 148.140,376.665 147.986,376.509 147.798 C 376.035 147.227,372.808 144.867,371.922 144.445 C 371.750 144.362,371.561 144.231,371.503 144.153 C 371.232 143.787,368.816 142.394,365.739 140.828 C 363.411 139.644,362.539 139.247,360.817 138.587 C 360.299 138.388,359.780 138.155,359.665 138.068 C 359.550 137.982,359.101 137.844,358.667 137.763 C 358.234 137.682,357.827 137.533,357.764 137.430 C 357.701 137.328,357.425 137.245,357.150 137.245 C 356.876 137.245,356.596 137.156,356.529 137.047 C 356.462 136.939,355.984 136.786,355.467 136.709 C 354.949 136.631,354.474 136.484,354.411 136.382 C 354.348 136.280,354.038 136.197,353.723 136.197 C 353.407 136.197,353.059 136.112,352.949 136.009 C 352.840 135.905,352.256 135.755,351.652 135.675 L 350.554 135.530 350.489 169.965 C 350.424 204.779,350.393 206.186,349.696 206.904 C 349.589 207.014,349.502 207.273,349.502 207.480 C 349.502 207.688,349.408 207.858,349.293 207.858 C 349.178 207.858,349.083 207.957,349.083 208.078 C 349.083 208.527,347.212 211.146,346.391 211.848 C 344.761 213.240,344.616 213.327,341.352 214.852 C 340.066 215.452,332.530 214.988,332.530 214.307 C 332.530 214.217,332.427 214.144,332.300 214.144 C 331.440 214.144,330.128 213.217,328.130 211.199 C 326.436 209.488,326.308 209.280,324.980 206.076 C 324.884 205.846,324.758 205.233,324.700 204.715 C 324.593 203.767,324.365 163.942,324.361 145.469 C 324.358 134.366,324.528 135.406,322.787 135.812 M334.812 150.827 C 333.503 151.425,332.179 152.725,331.482 154.098 L 330.959 155.131 330.959 171.405 C 330.959 188.109,330.950 187.917,331.718 189.209 C 331.820 189.382,331.970 189.664,332.050 189.837 C 333.952 193.933,341.263 193.304,343.453 188.857 L 343.950 187.847 343.950 171.399 C 343.950 153.592,343.983 154.152,342.862 153.002 C 342.716 152.852,342.524 152.607,342.435 152.457 C 341.327 150.590,337.245 149.717,334.812 150.827 " stroke="none" fill="#000000" fill-rule="evenodd"></path></g></svg>