<svg id="svg" version="1.1" xmlns="http://www.w3.org/2000/svg" xmlns:xlink="http://www.w3.org/1999/xlink" width="32" height="32" viewBox="-80 -128 500 500"><g id="svgg"><path id="path0" d="M25.875 1.282 C 26.035 1.323,26.298 1.323,26.458 1.282 C 26.619 1.240,26.488 1.205,26.167 1.205 C 25.846 1.205,25.715 1.240,25.875 1.282 M349.042 1.282 C 349.202 1.323,349.465 1.323,349.625 1.282 C 349.785 1.240,349.654 1.205,349.333 1.205 C 349.012 1.205,348.881 1.240,349.042 1.282 M10.677 8.170 C 10.362 8.439,10.142 8.698,10.188 8.744 C 10.235 8.790,10.526 8.567,10.836 8.248 C 11.520 7.542,11.451 7.508,10.677 8.170 M365.333 8.782 C 365.333 8.873,365.483 9.084,365.667 9.250 C 365.850 9.416,366.000 9.477,366.000 9.385 C 366.000 9.293,365.850 9.083,365.667 8.917 C 365.483 8.751,365.333 8.690,365.333 8.782 M3.749 108.667 C 3.749 155.188,3.768 174.219,3.792 150.958 C 3.815 127.698,3.815 89.635,3.792 66.375 C 3.768 43.115,3.749 62.146,3.749 108.667 M26.549 29.068 C 25.272 29.716,23.880 31.769,24.379 32.268 C 24.564 32.453,25.000 31.872,25.000 31.440 C 25.000 30.906,26.494 29.333,27.001 29.333 C 27.329 29.333,27.833 28.987,27.833 28.762 C 27.833 28.576,27.240 28.717,26.549 29.068 M69.000 28.751 C 69.000 28.938,69.468 29.333,69.696 29.338 C 69.818 29.341,70.104 29.571,70.333 29.849 C 70.563 30.127,70.919 30.534,71.125 30.753 C 71.331 30.972,71.500 31.342,71.500 31.576 C 71.500 31.809,71.575 32.000,71.667 32.000 C 72.350 32.000,71.281 29.799,70.312 29.212 C 69.680 28.829,69.000 28.590,69.000 28.751 M91.236 29.082 C 88.861 30.168,88.984 29.020,89.038 49.526 L 89.083 66.943 89.589 67.761 C 90.168 68.697,91.667 69.711,91.667 69.167 C 91.667 69.075,91.552 69.000,91.411 69.000 C 91.113 69.000,90.000 67.935,90.000 67.650 C 90.000 67.543,89.831 67.309,89.625 67.131 L 89.250 66.805 89.205 49.585 C 89.164 34.347,89.188 32.335,89.413 32.111 C 89.552 31.971,89.667 31.700,89.667 31.508 C 89.667 31.099,91.364 29.333,91.758 29.333 C 91.904 29.333,92.131 29.226,92.262 29.095 C 92.810 28.547,92.416 28.542,91.236 29.082 M133.667 28.822 C 133.667 28.920,133.781 29.000,133.920 29.000 C 134.059 29.000,134.678 29.505,135.295 30.122 L 136.417 31.244 136.417 49.211 C 136.417 59.093,136.474 66.901,136.545 66.562 C 136.615 66.223,136.653 58.139,136.628 48.598 L 136.583 31.250 136.167 30.507 C 135.621 29.534,133.667 28.217,133.667 28.822 M156.083 28.833 C 155.788 28.960,155.802 28.978,156.208 28.988 C 156.460 28.995,156.667 28.925,156.667 28.833 C 156.667 28.638,156.539 28.638,156.083 28.833 M198.500 28.833 C 198.500 28.925,198.706 28.995,198.958 28.988 C 199.364 28.978,199.379 28.960,199.083 28.833 C 198.628 28.638,198.500 28.638,198.500 28.833 M220.361 29.042 C 219.722 29.388,218.741 30.464,218.910 30.633 C 218.951 30.673,219.357 30.322,219.814 29.853 C 220.284 29.370,220.794 29.000,220.989 29.000 C 221.178 29.000,221.333 28.925,221.333 28.833 C 221.333 28.583,221.123 28.628,220.361 29.042 M263.167 28.833 C 263.167 28.925,263.373 28.995,263.625 28.988 C 264.031 28.978,264.045 28.960,263.750 28.833 C 263.295 28.638,263.167 28.638,263.167 28.833 M285.335 28.932 C 284.226 29.413,282.567 31.667,283.322 31.667 C 283.420 31.667,283.500 31.553,283.500 31.414 C 283.500 31.084,285.584 29.000,285.914 29.000 C 286.053 29.000,286.167 28.925,286.167 28.833 C 286.167 28.614,286.032 28.630,285.335 28.932 M328.000 28.837 C 328.000 28.927,328.150 29.000,328.333 29.000 C 328.517 29.000,328.667 29.075,328.667 29.167 C 328.667 29.258,328.744 29.333,328.839 29.333 C 329.108 29.333,330.167 30.459,330.167 30.744 C 330.167 30.885,330.242 31.000,330.333 31.000 C 330.811 31.000,330.053 29.702,329.324 29.271 C 328.624 28.858,328.000 28.653,328.000 28.837 M155.014 29.431 C 154.723 29.675,154.320 30.185,154.118 30.563 L 153.750 31.250 153.700 48.333 C 153.653 64.383,153.693 67.167,153.970 67.167 C 154.032 67.167,154.061 59.385,154.034 49.875 C 153.979 30.443,153.960 30.833,155.029 29.805 C 155.812 29.053,155.800 28.769,155.014 29.431 M199.500 29.069 C 199.500 29.191,199.716 29.468,200.292 30.084 C 200.498 30.304,200.667 30.595,200.667 30.729 C 200.667 30.863,200.760 31.003,200.875 31.042 C 201.040 31.097,201.083 34.837,201.083 49.000 C 201.083 63.163,201.040 66.903,200.875 66.958 C 200.632 67.039,200.590 67.667,200.827 67.667 C 201.493 67.667,201.571 31.695,200.908 30.431 C 200.604 29.851,199.500 28.783,199.500 29.069 M264.167 29.085 C 264.167 29.144,264.467 29.481,264.833 29.833 C 265.200 30.186,265.500 30.592,265.500 30.737 C 265.500 30.882,265.575 31.000,265.667 31.000 C 265.908 31.000,265.875 30.857,265.488 30.231 C 265.167 29.711,264.167 28.844,264.167 29.085 M218.615 31.395 C 218.543 31.658,218.525 31.914,218.575 31.964 C 218.749 32.138,218.858 31.862,218.802 31.390 L 218.746 30.917 218.615 31.395 M330.580 49.000 C 330.580 58.854,330.600 62.885,330.625 57.958 C 330.649 53.031,330.649 44.969,330.625 40.042 C 330.600 35.115,330.580 39.146,330.580 49.000 M24.333 66.507 C 24.333 67.035,24.931 68.079,25.514 68.569 C 26.259 69.196,26.319 68.975,25.600 68.256 C 25.270 67.926,25.000 67.508,25.000 67.328 C 25.000 67.147,24.925 67.000,24.833 67.000 C 24.742 67.000,24.667 66.813,24.667 66.583 C 24.667 66.354,24.592 66.167,24.500 66.167 C 24.408 66.167,24.333 66.320,24.333 66.507 M71.607 66.282 C 71.443 66.446,71.480 67.199,71.647 67.096 C 71.852 66.969,71.995 66.350,71.841 66.255 C 71.771 66.211,71.665 66.224,71.607 66.282 M218.512 66.365 C 218.540 66.893,218.809 67.272,218.822 66.802 C 218.828 66.555,218.758 66.307,218.667 66.250 C 218.575 66.193,218.505 66.245,218.512 66.365 M265.856 66.528 C 265.844 66.772,265.750 67.000,265.648 67.034 C 265.546 67.068,265.496 67.243,265.538 67.423 C 265.645 67.882,266.043 66.913,265.947 66.428 C 265.894 66.160,265.874 66.183,265.856 66.528 M283.256 66.708 C 283.641 67.999,285.833 70.090,285.833 69.167 C 285.833 69.075,285.719 69.000,285.579 69.000 C 285.248 69.000,283.833 67.585,283.833 67.254 C 283.833 67.114,283.758 67.000,283.667 67.000 C 283.575 67.000,283.500 66.850,283.500 66.667 C 283.500 66.483,283.420 66.333,283.322 66.333 C 283.216 66.333,283.189 66.484,283.256 66.708 M330.167 67.256 C 330.167 67.396,329.904 67.774,329.583 68.094 C 328.920 68.758,328.796 69.174,329.375 68.795 C 330.087 68.328,330.796 67.000,330.333 67.000 C 330.242 67.000,330.167 67.115,330.167 67.256 M71.167 67.583 C 71.167 67.721,71.242 67.833,71.333 67.833 C 71.425 67.833,71.500 67.721,71.500 67.583 C 71.500 67.446,71.425 67.333,71.333 67.333 C 71.242 67.333,71.167 67.446,71.167 67.583 M154.147 67.625 C 154.568 68.397,156.333 69.639,156.333 69.163 C 156.333 69.073,156.216 69.000,156.073 69.000 C 155.929 69.000,155.446 68.625,155.000 68.167 C 154.159 67.304,153.873 67.122,154.147 67.625 M218.833 67.487 C 218.833 67.572,219.030 67.875,219.271 68.161 C 219.739 68.717,221.000 69.453,221.000 69.170 C 221.000 69.077,220.920 69.000,220.823 69.000 C 220.725 69.000,220.280 68.625,219.833 68.167 C 219.017 67.328,218.833 67.204,218.833 67.487 M70.000 68.833 C 70.000 68.925,69.850 69.000,69.667 69.000 C 69.483 69.000,69.333 69.071,69.333 69.158 C 69.333 69.254,69.530 69.247,69.834 69.142 C 70.401 68.944,70.650 68.667,70.260 68.667 C 70.117 68.667,70.000 68.742,70.000 68.833 M134.667 68.833 C 134.667 68.925,134.517 69.000,134.333 69.000 C 134.150 69.000,134.000 69.075,134.000 69.167 C 134.000 69.390,134.097 69.378,134.675 69.079 C 135.219 68.798,135.296 68.667,134.917 68.667 C 134.779 68.667,134.667 68.742,134.667 68.833 M26.500 69.167 C 26.828 69.379,27.500 69.379,27.500 69.167 C 27.500 69.075,27.219 69.001,26.875 69.003 C 26.410 69.004,26.314 69.046,26.500 69.167 M262.833 69.167 C 262.833 69.379,263.505 69.379,263.833 69.167 C 264.019 69.046,263.923 69.004,263.458 69.003 C 263.115 69.001,262.833 69.075,262.833 69.167 M26.667 90.125 C 26.667 90.194,36.304 90.250,48.083 90.250 C 59.862 90.250,69.500 90.194,69.500 90.125 C 69.500 90.056,59.862 90.000,48.083 90.000 C 36.304 90.000,26.667 90.056,26.667 90.125 M91.333 90.125 C 91.333 90.194,100.983 90.250,112.778 90.250 C 129.785 90.250,134.237 90.293,134.292 90.458 C 134.330 90.573,134.497 90.667,134.663 90.667 C 135.046 90.667,136.000 91.547,136.000 91.900 C 136.000 92.047,136.075 92.167,136.167 92.167 C 136.525 92.167,136.298 91.750,135.509 90.961 C 135.055 90.507,134.610 90.182,134.520 90.238 C 134.430 90.293,134.309 90.263,134.252 90.169 C 134.128 89.970,91.333 89.926,91.333 90.125 M156.167 90.125 C 156.167 90.194,165.804 90.250,177.583 90.250 C 189.362 90.250,199.000 90.194,199.000 90.125 C 199.000 90.056,189.362 90.000,177.583 90.000 C 165.804 90.000,156.167 90.056,156.167 90.125 M220.833 90.177 C 220.833 90.274,220.768 90.312,220.687 90.263 C 220.425 90.101,219.426 90.913,219.054 91.590 C 218.590 92.433,218.402 93.167,218.649 93.167 C 218.750 93.167,218.833 92.942,218.833 92.667 C 218.833 92.392,218.908 92.167,219.000 92.167 C 219.092 92.167,219.167 92.051,219.167 91.909 C 219.167 91.550,219.819 90.935,220.596 90.563 C 221.226 90.262,222.043 90.250,242.458 90.250 C 254.123 90.250,263.667 90.194,263.667 90.125 C 263.667 90.056,254.029 90.000,242.250 90.000 C 227.288 90.000,220.833 90.053,220.833 90.177 M285.048 90.348 C 284.376 90.680,283.333 91.948,283.333 92.432 C 283.333 92.546,283.288 92.758,283.232 92.903 C 283.177 93.048,283.214 93.167,283.316 93.167 C 283.417 93.167,283.500 92.972,283.500 92.734 C 283.500 92.467,283.693 92.121,284.000 91.833 C 284.275 91.576,284.500 91.248,284.500 91.103 C 284.500 90.954,284.699 90.791,284.958 90.728 C 285.210 90.666,285.470 90.533,285.536 90.433 C 285.621 90.302,291.723 90.250,307.061 90.250 C 318.835 90.250,328.433 90.194,328.391 90.125 C 328.173 89.772,285.771 89.990,285.048 90.348 M25.834 90.536 C 25.117 91.020,24.388 92.046,24.691 92.147 C 24.806 92.185,24.931 92.125,24.968 92.013 C 25.056 91.748,26.081 90.723,26.346 90.635 C 26.458 90.597,26.519 90.472,26.480 90.357 C 26.430 90.208,26.245 90.259,25.834 90.536 M69.667 90.401 C 69.667 90.524,69.886 90.669,70.153 90.722 C 70.442 90.780,70.684 90.958,70.748 91.160 C 70.807 91.347,70.926 91.500,71.011 91.500 C 71.097 91.500,71.167 91.650,71.167 91.833 C 71.167 92.017,71.242 92.167,71.333 92.167 C 71.425 92.167,71.500 92.392,71.500 92.667 C 71.500 92.942,71.575 93.167,71.667 93.167 C 71.904 93.167,71.873 92.582,71.603 91.953 C 71.220 91.059,69.667 89.815,69.667 90.401 M90.561 90.540 C 90.038 90.943,89.660 91.382,89.754 91.476 C 89.786 91.509,90.009 91.340,90.247 91.101 C 90.486 90.862,90.828 90.667,91.008 90.667 C 91.187 90.667,91.333 90.596,91.333 90.510 C 91.333 90.175,91.019 90.187,90.561 90.540 M154.810 90.976 C 154.034 91.752,153.810 92.167,154.167 92.167 C 154.258 92.167,154.333 92.047,154.333 91.900 C 154.333 91.541,155.291 90.667,155.684 90.667 C 155.858 90.667,156.000 90.554,156.000 90.417 C 156.000 89.977,155.640 90.146,154.810 90.976 M199.167 90.422 C 199.167 90.557,199.279 90.667,199.417 90.667 C 199.554 90.667,199.667 90.600,199.667 90.518 C 199.667 90.436,199.554 90.326,199.417 90.273 C 199.264 90.215,199.167 90.273,199.167 90.422 M328.667 90.328 C 328.667 90.424,329.004 90.835,329.417 91.241 C 329.829 91.648,330.167 92.098,330.167 92.240 C 330.167 92.383,330.243 92.500,330.336 92.500 C 330.449 92.500,330.503 97.381,330.497 107.273 C 330.493 115.397,330.524 122.079,330.566 122.121 C 330.813 122.368,332.333 120.901,332.333 120.416 C 332.333 120.362,332.502 120.152,332.708 119.950 C 332.915 119.749,333.374 119.152,333.729 118.625 C 334.084 118.098,334.440 117.667,334.520 117.667 C 334.601 117.667,334.667 117.598,334.667 117.514 C 334.667 117.318,335.178 116.709,336.375 115.483 C 336.902 114.942,337.333 114.431,337.333 114.348 C 337.333 114.264,337.690 113.842,338.125 113.409 L 338.917 112.622 337.873 113.505 C 337.298 113.990,336.248 115.097,335.539 115.965 C 334.830 116.833,334.175 117.627,334.083 117.730 C 333.620 118.250,332.650 119.534,331.990 120.500 C 331.195 121.663,331.007 121.857,330.800 121.729 C 330.726 121.684,330.667 115.094,330.667 107.084 C 330.667 98.476,330.603 92.354,330.511 92.113 C 330.212 91.326,328.667 89.831,328.667 90.328 M263.833 90.500 C 263.833 90.592,263.906 90.667,263.996 90.667 C 264.085 90.667,264.495 91.004,264.908 91.417 C 265.781 92.289,265.937 92.351,265.594 91.687 C 265.155 90.838,263.833 89.947,263.833 90.500 M199.833 90.610 C 199.833 90.885,200.466 91.539,200.667 91.472 C 200.767 91.439,200.621 91.192,200.341 90.924 C 200.062 90.657,199.833 90.515,199.833 90.610 M200.667 91.917 C 200.667 92.054,200.742 92.167,200.833 92.167 C 200.925 92.167,201.000 92.054,201.000 91.917 C 201.000 91.779,200.925 91.667,200.833 91.667 C 200.742 91.667,200.667 91.779,200.667 91.917 M24.333 92.750 C 24.333 92.979,24.408 93.167,24.500 93.167 C 24.592 93.167,24.667 92.979,24.667 92.750 C 24.667 92.521,24.592 92.333,24.500 92.333 C 24.408 92.333,24.333 92.521,24.333 92.750 M89.104 92.854 C 88.857 94.090,88.990 127.407,89.246 128.261 C 89.495 129.095,90.013 129.783,90.763 130.274 C 91.516 130.767,91.386 130.363,90.520 129.519 C 90.050 129.062,89.667 128.566,89.667 128.416 C 89.667 128.266,89.552 128.028,89.412 127.888 C 89.187 127.663,89.163 125.626,89.204 109.984 C 89.229 100.276,89.241 92.333,89.229 92.333 C 89.218 92.333,89.161 92.568,89.104 92.854 M136.417 110.292 L 136.417 128.270 135.356 129.311 C 134.276 130.371,134.080 130.822,134.977 130.183 C 135.721 129.653,136.300 128.897,136.493 128.203 C 136.683 127.517,136.714 93.370,136.525 92.698 C 136.465 92.487,136.417 100.404,136.417 110.292 M153.752 93.042 C 153.486 94.894,153.742 128.236,154.027 128.750 C 154.341 129.318,155.070 130.033,155.625 130.319 C 156.204 130.616,156.079 130.405,155.097 129.423 C 153.899 128.225,153.973 129.607,154.032 109.542 C 154.079 93.704,154.035 91.074,153.752 93.042 M201.012 92.708 C 201.005 92.960,201.075 93.167,201.167 93.167 C 201.362 93.167,201.362 93.039,201.167 92.583 C 201.040 92.288,201.022 92.302,201.012 92.708 M201.247 110.417 C 201.247 119.858,201.267 123.696,201.292 118.946 C 201.316 114.195,201.316 106.470,201.292 101.779 C 201.267 97.088,201.247 100.975,201.247 110.417 M361.042 103.619 C 361.294 103.658,361.706 103.658,361.958 103.619 C 362.210 103.581,362.004 103.550,361.500 103.550 C 360.996 103.550,360.790 103.581,361.042 103.619 M344.708 108.353 C 343.956 108.834,344.026 108.945,344.792 108.485 C 345.566 108.019,345.591 107.999,345.403 108.003 C 345.319 108.004,345.006 108.162,344.708 108.353 M360.792 110.289 C 361.181 110.324,361.819 110.324,362.208 110.289 C 362.598 110.254,362.279 110.225,361.500 110.225 C 360.721 110.225,360.402 110.254,360.792 110.289 M350.792 112.511 C 350.448 112.693,350.167 112.879,350.167 112.924 C 350.167 112.998,351.483 112.383,351.653 112.230 C 351.845 112.056,351.344 112.220,350.792 112.511 M374.000 113.563 C 374.000 113.602,374.267 113.791,374.593 113.984 C 374.920 114.176,375.140 114.258,375.083 114.166 C 374.971 113.985,374.000 113.444,374.000 113.563 M342.054 118.542 C 341.438 119.226,341.440 119.426,342.058 118.842 C 342.393 118.526,342.667 118.245,342.667 118.217 C 342.667 118.049,342.343 118.221,342.054 118.542 M340.286 120.320 C 339.901 120.680,339.627 121.016,339.678 121.067 C 339.729 121.118,340.100 120.824,340.503 120.413 C 341.406 119.493,341.246 119.425,340.286 120.320 M24.333 127.808 C 24.333 128.718,25.677 130.179,26.814 130.507 C 27.222 130.624,34.212 130.665,48.417 130.631 L 69.417 130.582 48.292 130.541 C 34.347 130.514,27.167 130.443,27.167 130.333 C 27.167 130.242,27.047 130.167,26.900 130.167 C 26.488 130.167,24.667 128.171,24.667 127.719 C 24.667 127.507,24.592 127.333,24.500 127.333 C 24.408 127.333,24.333 127.547,24.333 127.808 M71.611 127.611 C 71.550 127.672,71.500 127.862,71.500 128.034 C 71.500 128.336,71.348 128.537,70.208 129.747 C 69.537 130.460,69.526 130.581,70.160 130.253 C 70.616 130.018,71.564 128.998,71.598 128.708 C 71.606 128.640,71.662 128.452,71.723 128.292 C 72.010 127.533,71.965 127.257,71.611 127.611 M201.003 128.042 C 201.005 128.345,201.036 128.369,201.167 128.167 C 201.375 127.844,201.375 127.667,201.167 127.667 C 201.075 127.667,201.001 127.835,201.003 128.042 M218.588 128.042 C 218.842 128.909,219.322 129.613,219.971 130.072 C 221.041 130.827,220.980 130.459,219.852 129.352 C 219.260 128.770,218.833 128.208,218.833 128.009 C 218.833 127.821,218.753 127.667,218.655 127.667 C 218.549 127.667,218.522 127.818,218.588 128.042 M283.167 127.755 C 283.167 128.417,284.233 129.847,285.042 130.269 C 285.726 130.627,285.606 130.419,284.500 129.333 C 283.920 128.765,283.500 128.208,283.500 128.009 C 283.500 127.821,283.425 127.667,283.333 127.667 C 283.242 127.667,283.167 127.707,283.167 127.755 M388.485 128.083 C 388.774 128.649,388.995 128.926,388.997 128.727 C 388.999 128.622,388.846 128.360,388.657 128.143 C 388.388 127.834,388.351 127.821,388.485 128.083 M334.213 128.208 C 333.854 128.673,333.814 128.830,334.082 128.728 C 334.228 128.671,334.308 128.585,334.259 128.536 C 334.210 128.487,334.253 128.347,334.355 128.224 C 334.457 128.101,334.503 128.000,334.457 128.000 C 334.412 128.000,334.302 128.094,334.213 128.208 M200.333 129.015 C 200.104 129.293,199.748 129.700,199.542 129.920 C 199.023 130.471,199.073 130.573,199.686 130.218 C 200.238 129.898,201.000 129.013,201.000 128.693 C 201.000 128.372,200.773 128.483,200.333 129.015 M264.833 129.333 C 264.295 129.918,263.954 130.151,263.625 130.158 C 263.373 130.163,263.167 130.241,263.167 130.333 C 263.167 130.442,255.959 130.513,242.125 130.542 L 221.083 130.585 242.250 130.622 C 266.074 130.664,264.179 130.764,265.303 129.400 C 266.282 128.214,265.912 128.161,264.833 129.333 M305.417 130.500 L 285.750 130.585 305.636 130.626 L 325.522 130.667 325.407 131.042 C 325.343 131.248,325.184 131.642,325.052 131.917 L 324.813 132.417 325.157 132.000 C 325.740 131.294,325.828 130.273,325.297 130.374 C 325.179 130.396,316.233 130.453,305.417 130.500 M102.208 130.625 C 108.052 130.649,117.615 130.649,123.458 130.625 C 129.302 130.601,124.521 130.581,112.833 130.581 C 101.146 130.581,96.365 130.601,102.208 130.625 M166.875 130.625 C 172.719 130.649,182.281 130.649,188.125 130.625 C 193.969 130.601,189.188 130.581,177.500 130.581 C 165.813 130.581,161.031 130.601,166.875 130.625 M360.375 130.957 C 360.994 130.989,362.006 130.989,362.625 130.957 C 363.244 130.925,362.738 130.899,361.500 130.899 C 360.262 130.899,359.756 130.925,360.375 130.957 M366.680 131.619 C 366.664 131.857,367.313 132.243,367.468 132.088 C 367.597 131.959,367.148 131.659,366.981 131.762 C 366.915 131.802,366.824 131.741,366.777 131.626 C 366.714 131.469,366.690 131.468,366.680 131.619 M390.793 132.111 C 390.908 132.157,390.960 132.264,390.908 132.348 C 390.856 132.431,390.898 132.500,391.000 132.500 C 391.102 132.500,391.140 132.575,391.083 132.667 C 391.027 132.758,391.064 132.833,391.167 132.833 C 391.269 132.833,391.318 132.890,391.276 132.958 C 391.233 133.027,391.346 133.346,391.526 133.667 C 391.706 133.988,391.805 134.100,391.746 133.917 C 391.687 133.733,391.613 133.459,391.582 133.308 C 391.476 132.789,390.992 132.000,390.787 132.013 C 390.632 132.023,390.633 132.046,390.793 132.111 M331.613 132.924 C 331.222 133.745,331.277 133.885,331.686 133.109 C 331.872 132.757,331.995 132.439,331.959 132.403 C 331.923 132.367,331.767 132.602,331.613 132.924 M323.983 134.122 C 323.580 135.014,323.243 135.782,323.235 135.830 C 323.227 135.878,323.086 136.217,322.922 136.583 C 322.509 137.505,322.319 138.195,322.511 138.077 C 322.596 138.024,322.667 137.897,322.667 137.794 C 322.667 137.692,322.957 137.003,323.311 136.263 C 325.061 132.610,325.107 132.500,324.858 132.500 C 324.779 132.500,324.386 133.230,323.983 134.122 M353.866 133.216 C 353.322 133.778,353.126 134.213,353.591 133.827 C 353.866 133.599,354.565 132.667,354.461 132.667 C 354.427 132.667,354.159 132.914,353.866 133.216 M359.381 137.436 C 359.496 137.551,363.365 137.524,363.482 137.407 C 363.522 137.367,362.593 137.333,361.417 137.333 C 360.240 137.333,359.324 137.380,359.381 137.436 M119.278 151.458 C 151.285 151.482,203.710 151.482,235.778 151.458 C 267.846 151.435,241.658 151.416,177.583 151.416 C 113.508 151.416,87.271 151.435,119.278 151.458 M59.703 152.105 C 59.073 152.633,58.333 153.667,58.585 153.667 C 58.679 153.667,58.824 153.543,60.125 152.345 C 61.252 151.307,60.896 151.105,59.703 152.105 M294.333 151.655 C 294.333 151.753,294.465 151.835,294.625 151.837 C 294.785 151.839,295.141 152.101,295.415 152.420 C 295.963 153.057,296.535 153.262,296.123 152.673 C 295.639 151.982,294.333 151.240,294.333 151.655 M296.167 153.583 C 296.167 153.824,296.263 154.000,296.394 154.000 C 296.546 154.000,296.594 153.863,296.541 153.583 C 296.497 153.354,296.395 153.167,296.314 153.167 C 296.233 153.167,296.167 153.354,296.167 153.583 M58.414 171.667 C 58.414 181.338,58.434 185.294,58.458 180.458 C 58.483 175.623,58.483 167.710,58.458 162.875 C 58.434 158.040,58.414 161.996,58.414 171.667 M296.580 171.667 C 296.580 181.246,296.600 185.165,296.625 180.375 C 296.650 175.585,296.650 167.748,296.625 162.958 C 296.600 158.169,296.580 162.087,296.580 171.667 M360.465 154.790 C 361.041 154.823,361.941 154.823,362.465 154.790 C 362.988 154.757,362.517 154.730,361.417 154.730 C 360.317 154.731,359.888 154.758,360.465 154.790 M352.693 157.424 C 352.885 157.749,353.078 157.978,353.122 157.933 C 353.201 157.854,352.541 156.833,352.411 156.833 C 352.374 156.833,352.501 157.099,352.693 157.424 M353.500 158.451 C 353.500 158.537,353.698 158.790,353.939 159.013 C 354.331 159.373,354.359 159.379,354.198 159.070 C 353.983 158.655,353.500 158.227,353.500 158.451 M398.781 161.625 C 398.741 161.694,398.769 161.900,398.842 162.083 C 398.960 162.374,398.978 162.358,398.988 161.958 C 399.000 161.506,398.922 161.381,398.781 161.625 M324.042 163.417 C 324.044 163.783,324.078 163.914,324.118 163.706 C 324.158 163.499,324.156 163.199,324.115 163.040 C 324.073 162.880,324.040 163.050,324.042 163.417 M317.375 163.583 C 317.377 163.950,317.411 164.080,317.451 163.873 C 317.491 163.666,317.490 163.366,317.448 163.206 C 317.406 163.047,317.374 163.217,317.375 163.583 M398.850 164.708 C 398.906 165.413,399.134 165.729,399.150 165.125 C 399.159 164.781,399.092 164.500,399.000 164.500 C 398.908 164.500,398.841 164.594,398.850 164.708 M398.935 171.198 C 398.877 171.490,398.905 171.805,398.998 171.898 C 399.112 172.012,399.167 171.839,399.167 171.367 C 399.167 170.532,399.081 170.470,398.935 171.198 M317.372 172.833 C 317.372 173.154,317.406 173.285,317.448 173.125 C 317.490 172.965,317.490 172.702,317.448 172.542 C 317.406 172.381,317.372 172.512,317.372 172.833 M324.042 172.917 C 324.044 173.283,324.078 173.414,324.118 173.206 C 324.158 172.999,324.156 172.699,324.115 172.540 C 324.073 172.380,324.040 172.550,324.042 172.917 M319.408 187.807 C 319.445 188.114,319.519 188.408,319.571 188.460 C 319.720 188.609,319.661 187.955,319.491 187.583 C 319.373 187.323,319.355 187.372,319.408 187.807 M319.678 189.032 C 319.672 189.279,319.742 189.527,319.833 189.583 C 320.032 189.706,320.032 189.380,319.833 188.917 C 319.705 188.619,319.689 188.631,319.678 189.032 M58.500 189.592 C 58.500 190.065,59.919 191.667,60.339 191.667 C 60.630 191.667,60.510 191.488,59.667 190.667 C 59.208 190.220,58.833 189.775,58.833 189.677 C 58.833 189.580,58.758 189.500,58.667 189.500 C 58.575 189.500,58.500 189.541,58.500 189.592 M296.167 189.801 C 296.167 189.967,296.057 190.249,295.922 190.426 C 295.573 190.888,295.610 191.045,295.991 190.719 C 296.170 190.566,296.278 190.379,296.232 190.304 C 296.185 190.228,296.218 190.167,296.304 190.167 C 296.390 190.167,296.500 190.017,296.548 189.833 C 296.605 189.617,296.553 189.500,296.401 189.500 C 296.272 189.500,296.167 189.636,296.167 189.801 M320.122 190.438 C 320.006 190.625,321.527 195.282,321.937 195.995 L 322.179 196.417 322.079 196.000 C 322.024 195.771,321.911 195.433,321.827 195.250 C 321.373 194.250,320.954 192.984,320.833 192.242 C 320.663 191.203,320.268 190.201,320.122 190.438 M60.965 191.863 C 61.122 191.926,113.600 191.977,177.583 191.977 C 241.567 191.977,294.045 191.926,294.202 191.863 C 294.359 191.801,241.881 191.750,177.583 191.750 C 113.286 191.750,60.808 191.801,60.965 191.863 M322.012 196.736 C 321.748 197.053,321.827 197.210,322.150 197.010 C 322.273 196.934,322.343 196.780,322.306 196.668 C 322.257 196.522,322.173 196.542,322.012 196.736 M10.579 208.996 C 11.121 209.543,11.593 209.963,11.628 209.928 C 11.697 209.858,9.820 208.000,9.680 208.000 C 9.633 208.000,10.037 208.448,10.579 208.996 M334.817 209.083 C 335.098 209.627,335.328 209.928,335.327 209.750 C 335.326 209.658,335.173 209.396,334.985 209.167 C 334.759 208.890,334.702 208.862,334.817 209.083 M328.500 211.429 C 328.500 211.553,328.948 212.000,329.073 212.000 C 329.126 212.000,329.076 211.850,328.961 211.667 C 328.766 211.354,328.500 211.217,328.500 211.429 M0.075 214.083 C 0.109 215.000,0.223 215.973,0.328 216.245 C 0.490 216.664,0.475 216.772,0.230 216.952 C 0.071 217.068,-0.021 217.201,0.024 217.247 C 0.408 217.631,0.711 216.827,0.528 215.912 C 0.421 215.380,0.324 214.601,0.314 214.181 C 0.303 213.760,0.231 213.192,0.153 212.917 C 0.061 212.590,0.034 212.995,0.075 214.083 M16.667 213.415 C 16.667 213.528,18.020 214.202,18.096 214.126 C 18.131 214.091,17.823 213.900,17.413 213.700 C 17.003 213.501,16.667 213.373,16.667 213.415 M338.500 214.126 C 338.500 214.218,338.612 214.386,338.750 214.500 C 338.889 214.616,339.000 214.634,339.000 214.541 C 339.000 214.449,338.887 214.281,338.750 214.167 C 338.611 214.051,338.500 214.033,338.500 214.126 M340.000 215.750 C 340.311 216.071,340.603 216.333,340.649 216.333 C 340.695 216.333,340.478 216.071,340.167 215.750 C 339.856 215.429,339.564 215.167,339.518 215.167 C 339.472 215.167,339.689 215.429,340.000 215.750 M381.837 216.747 C 381.434 217.157,381.141 217.530,381.187 217.576 C 381.233 217.622,381.638 217.286,382.087 216.829 C 382.536 216.373,382.829 216.000,382.737 216.000 C 382.645 216.000,382.240 216.336,381.837 216.747 M341.833 217.600 C 341.833 217.816,342.968 218.921,343.078 218.811 C 343.123 218.766,342.862 218.437,342.497 218.080 C 342.132 217.724,341.833 217.508,341.833 217.600 M378.667 219.583 C 378.551 219.723,378.533 219.833,378.626 219.833 C 378.718 219.833,378.886 219.721,379.000 219.583 C 379.116 219.444,379.134 219.333,379.041 219.333 C 378.949 219.333,378.781 219.446,378.667 219.583 M359.917 226.167 C 359.854 226.267,360.065 226.329,360.448 226.322 C 360.955 226.312,361.016 226.281,360.750 226.167 C 360.292 225.970,360.038 225.970,359.917 226.167 M362.250 226.167 C 361.983 226.282,362.040 226.312,362.542 226.322 C 362.885 226.328,363.167 226.258,363.167 226.167 C 363.167 225.968,362.713 225.968,362.250 226.167 " stroke="none" fill="#d3d3d3" fill-rule="evenodd"></path><path id="path1" d="M25.000 1.560 C 25.000 1.639,24.738 1.655,24.417 1.594 C 24.024 1.521,23.833 1.548,23.833 1.677 C 23.833 1.799,23.681 1.831,23.417 1.765 C 23.155 1.699,23.000 1.731,23.000 1.850 C 23.000 1.957,22.856 2.001,22.667 1.952 C 22.484 1.904,22.294 1.929,22.245 2.008 C 22.196 2.087,22.053 2.113,21.928 2.065 C 21.803 2.017,21.653 2.054,21.595 2.148 C 21.537 2.242,21.379 2.277,21.245 2.225 C 21.110 2.173,21.000 2.222,21.000 2.333 C 21.000 2.445,20.895 2.495,20.766 2.446 C 20.638 2.397,20.482 2.407,20.419 2.470 C 20.357 2.532,20.237 2.593,20.153 2.604 C 20.069 2.616,19.962 2.644,19.917 2.667 C 19.871 2.690,19.777 2.724,19.708 2.744 C 19.348 2.845,18.794 3.080,17.638 3.622 C 16.935 3.951,16.306 4.202,16.240 4.179 C 16.174 4.157,16.075 4.211,16.019 4.301 C 15.892 4.503,13.669 6.000,13.496 6.000 C 13.426 6.000,13.326 6.112,13.273 6.250 C 13.220 6.388,13.025 6.500,12.839 6.500 C 12.652 6.500,12.500 6.610,12.500 6.744 C 12.500 6.878,12.331 7.077,12.125 7.186 C 11.919 7.294,11.502 7.670,11.200 8.020 C 10.897 8.370,10.450 8.753,10.207 8.870 C 9.963 8.987,9.720 9.270,9.667 9.499 C 9.613 9.727,9.404 9.996,9.202 10.097 C 9.000 10.197,8.875 10.319,8.923 10.368 C 8.971 10.416,8.741 10.784,8.412 11.186 C 8.082 11.588,7.714 12.038,7.593 12.187 C 7.472 12.335,7.284 12.729,7.174 13.062 C 7.064 13.395,6.919 13.667,6.852 13.667 C 6.785 13.667,6.510 14.191,6.240 14.833 C 5.971 15.474,5.689 15.999,5.615 15.999 C 5.541 16.000,5.527 16.075,5.583 16.167 C 5.640 16.258,5.609 16.333,5.515 16.333 C 5.421 16.333,5.387 16.446,5.440 16.583 C 5.492 16.721,5.448 16.833,5.341 16.833 C 5.234 16.833,5.193 16.908,5.250 17.000 C 5.307 17.092,5.276 17.167,5.182 17.167 C 5.088 17.167,5.054 17.279,5.106 17.417 C 5.159 17.554,5.122 17.667,5.023 17.667 C 4.924 17.667,4.887 17.779,4.940 17.917 C 4.992 18.054,4.955 18.167,4.856 18.167 C 4.758 18.167,4.717 18.272,4.767 18.400 C 4.816 18.528,4.779 18.680,4.685 18.738 C 4.591 18.797,4.557 18.954,4.608 19.089 C 4.660 19.223,4.614 19.333,4.507 19.333 C 4.387 19.333,4.352 19.463,4.417 19.667 C 4.475 19.850,4.453 20.000,4.368 20.000 C 4.284 20.000,4.218 20.206,4.222 20.458 C 4.226 20.710,4.140 21.503,4.031 22.220 C 3.710 24.338,3.751 193.185,4.073 195.331 C 4.204 196.200,4.279 196.943,4.240 196.982 C 4.201 197.021,4.252 197.152,4.353 197.274 C 4.455 197.396,4.494 197.609,4.441 197.748 C 4.387 197.887,4.424 198.000,4.523 198.000 C 4.622 198.000,4.659 198.113,4.606 198.250 C 4.554 198.388,4.591 198.500,4.690 198.500 C 4.788 198.500,4.827 198.610,4.775 198.745 C 4.723 198.879,4.754 199.034,4.843 199.090 C 4.932 199.145,4.965 199.254,4.917 199.333 C 4.868 199.412,4.905 199.525,5.000 199.583 C 5.095 199.642,5.129 199.760,5.076 199.845 C 5.023 199.930,5.066 200.000,5.171 200.000 C 5.275 200.000,5.330 200.093,5.292 200.207 C 5.254 200.321,5.326 200.517,5.452 200.643 C 5.578 200.769,5.653 200.956,5.619 201.060 C 5.585 201.163,5.657 201.347,5.780 201.470 C 5.903 201.593,5.960 201.762,5.908 201.847 C 5.856 201.931,5.898 202.000,6.000 202.000 C 6.102 202.000,6.140 202.075,6.083 202.167 C 6.027 202.258,6.064 202.333,6.167 202.333 C 6.269 202.333,6.313 202.398,6.264 202.478 C 6.215 202.557,6.409 202.988,6.694 203.436 C 6.980 203.884,7.466 204.643,7.774 205.122 C 8.081 205.602,8.333 206.063,8.333 206.146 C 8.333 206.230,8.451 206.343,8.594 206.398 C 8.737 206.453,8.813 206.565,8.762 206.647 C 8.711 206.730,8.856 206.919,9.085 207.069 C 9.313 207.219,9.500 207.452,9.500 207.587 C 9.500 207.723,9.594 207.833,9.709 207.833 C 9.824 207.833,10.402 208.393,10.994 209.076 C 11.586 209.760,12.101 210.288,12.140 210.249 C 12.205 210.184,13.543 211.182,13.917 211.575 C 14.009 211.671,14.440 211.936,14.875 212.163 C 15.311 212.390,15.667 212.626,15.667 212.687 C 15.667 212.748,15.854 212.844,16.083 212.902 C 16.312 212.959,16.500 213.084,16.500 213.180 C 16.500 213.275,16.575 213.307,16.667 213.250 C 16.758 213.193,16.833 213.226,16.833 213.323 C 16.833 213.421,16.890 213.482,16.958 213.461 C 17.164 213.397,19.000 214.194,19.000 214.347 C 19.000 214.426,19.113 214.446,19.250 214.394 C 19.388 214.341,19.500 214.385,19.500 214.492 C 19.500 214.599,19.575 214.640,19.667 214.583 C 19.758 214.527,19.833 214.551,19.833 214.638 C 19.833 214.725,19.927 214.787,20.042 214.776 C 20.156 214.764,21.111 214.968,22.164 215.227 C 23.216 215.487,24.528 215.745,25.080 215.800 C 27.640 216.056,331.333 216.007,331.333 215.750 C 331.333 215.613,331.258 215.500,331.167 215.500 C 331.075 215.500,331.000 215.396,331.000 215.268 C 331.000 215.140,330.883 214.991,330.739 214.936 C 330.596 214.881,330.526 214.760,330.583 214.667 C 330.641 214.574,330.571 214.453,330.427 214.398 C 330.284 214.343,330.167 214.199,330.167 214.079 C 330.167 213.959,330.102 213.836,330.024 213.806 C 329.820 213.726,327.908 210.641,327.958 210.473 C 327.981 210.396,327.912 210.333,327.806 210.333 C 327.699 210.333,327.660 210.284,327.720 210.225 C 327.779 210.165,327.721 210.034,327.591 209.933 C 327.298 209.708,323.984 203.064,323.952 202.639 C 323.939 202.471,323.866 202.333,323.788 202.333 C 323.710 202.333,323.690 202.264,323.743 202.178 C 323.796 202.093,323.761 201.975,323.667 201.917 C 323.572 201.858,323.538 201.740,323.590 201.655 C 323.643 201.570,323.602 201.500,323.500 201.500 C 323.398 201.500,323.356 201.431,323.408 201.348 C 323.460 201.264,323.423 201.169,323.327 201.137 C 323.231 201.105,323.139 200.911,323.124 200.706 C 323.108 200.501,323.045 200.333,322.983 200.333 C 322.847 200.333,322.598 199.502,322.647 199.208 C 322.666 199.094,322.603 199.000,322.507 199.000 C 322.412 199.000,322.342 198.944,322.353 198.875 C 322.364 198.806,322.358 198.713,322.340 198.667 C 322.299 198.561,322.222 198.268,321.990 197.333 C 321.888 196.921,321.400 195.346,320.906 193.833 C 319.906 190.769,319.095 187.584,319.251 187.332 C 319.307 187.241,319.265 187.167,319.157 187.167 C 319.043 187.167,318.998 187.027,319.048 186.833 C 319.096 186.650,319.064 186.456,318.978 186.403 C 318.891 186.349,318.863 186.168,318.917 186.000 C 318.970 185.832,318.935 185.646,318.840 185.587 C 318.744 185.528,318.711 185.297,318.767 185.073 C 318.834 184.809,318.798 184.667,318.667 184.667 C 318.535 184.667,318.500 184.524,318.566 184.260 C 318.622 184.037,318.590 183.805,318.494 183.746 C 318.398 183.687,318.365 183.496,318.421 183.321 C 318.476 183.146,318.462 182.909,318.388 182.793 C 318.315 182.678,318.239 182.396,318.218 182.167 C 318.198 181.938,318.142 181.450,318.093 181.083 C 317.654 177.769,317.555 176.551,317.350 171.917 C 317.144 167.260,317.372 161.206,317.931 156.500 C 317.980 156.087,318.035 155.563,318.054 155.333 C 318.073 155.104,318.148 154.822,318.222 154.707 C 318.295 154.591,318.306 154.344,318.247 154.157 C 318.188 153.970,318.227 153.712,318.333 153.583 C 318.440 153.455,318.479 153.196,318.419 153.008 C 318.352 152.796,318.385 152.667,318.507 152.667 C 318.631 152.667,318.666 152.518,318.601 152.260 C 318.545 152.037,318.574 151.807,318.667 151.750 C 318.759 151.693,318.789 151.463,318.733 151.240 C 318.666 150.976,318.702 150.833,318.833 150.833 C 318.966 150.833,319.000 150.690,318.932 150.417 C 318.868 150.164,318.898 150.000,319.008 150.000 C 319.111 150.000,319.145 149.862,319.088 149.681 C 319.032 149.505,319.068 149.311,319.167 149.250 C 319.266 149.189,319.301 148.995,319.246 148.819 C 319.185 148.627,319.223 148.500,319.342 148.500 C 319.457 148.500,319.503 148.361,319.452 148.167 C 319.404 147.984,319.426 147.796,319.500 147.750 C 319.574 147.704,319.596 147.516,319.548 147.333 C 319.500 147.150,319.538 147.000,319.632 147.000 C 319.725 147.000,319.763 146.850,319.715 146.667 C 319.667 146.483,319.709 146.333,319.809 146.333 C 319.908 146.333,319.949 146.228,319.900 146.100 C 319.851 145.972,319.887 145.820,319.981 145.762 C 320.075 145.703,320.110 145.546,320.058 145.411 C 320.007 145.277,320.052 145.167,320.160 145.167 C 320.280 145.167,320.315 145.037,320.250 144.833 C 320.192 144.650,320.206 144.500,320.280 144.500 C 320.355 144.499,320.434 144.256,320.455 143.959 C 320.476 143.662,320.570 143.393,320.664 143.362 C 320.758 143.331,320.796 143.240,320.747 143.162 C 320.698 143.083,320.932 142.173,321.266 141.140 C 321.600 140.106,321.896 139.146,321.924 139.005 C 321.952 138.865,321.989 138.712,322.007 138.667 C 322.025 138.621,322.031 138.527,322.020 138.458 C 322.009 138.390,322.059 138.333,322.130 138.333 C 322.202 138.333,322.276 138.149,322.294 137.925 C 322.340 137.377,323.336 134.992,324.437 132.794 C 324.930 131.811,325.333 130.967,325.333 130.919 C 325.333 130.872,316.458 130.833,305.611 130.833 C 294.764 130.833,285.833 130.777,285.764 130.708 C 285.695 130.640,285.570 130.574,285.486 130.563 C 285.402 130.551,285.261 130.532,285.172 130.521 C 284.883 130.483,283.822 129.461,283.572 128.979 C 283.204 128.266,283.202 92.405,283.570 91.692 C 283.925 91.005,284.892 90.212,285.620 90.010 C 286.456 89.778,327.501 89.766,328.333 89.998 C 329.060 90.200,330.081 91.028,330.462 91.723 C 330.727 92.208,330.757 93.427,330.833 106.948 L 330.917 121.646 332.632 119.348 C 334.337 117.064,337.568 113.291,337.704 113.426 C 337.742 113.465,337.989 113.272,338.252 112.998 C 338.514 112.724,338.798 112.500,338.882 112.500 C 338.966 112.500,339.183 112.313,339.363 112.083 C 339.543 111.854,339.751 111.667,339.824 111.667 C 339.898 111.667,340.242 111.407,340.588 111.089 C 340.935 110.772,341.274 110.547,341.342 110.589 C 341.410 110.630,341.510 110.548,341.565 110.405 C 341.619 110.262,341.740 110.193,341.833 110.250 C 341.926 110.307,342.047 110.237,342.102 110.094 C 342.298 109.585,349.179 105.718,349.517 105.927 C 349.586 105.970,349.691 105.928,349.750 105.833 C 349.809 105.739,349.926 105.704,350.012 105.757 C 350.097 105.810,350.167 105.769,350.167 105.667 C 350.167 105.564,350.236 105.523,350.322 105.576 C 350.407 105.629,350.525 105.595,350.583 105.500 C 350.642 105.405,350.760 105.371,350.845 105.424 C 350.930 105.477,351.000 105.432,351.000 105.325 C 351.000 105.218,351.113 105.174,351.250 105.227 C 351.387 105.280,351.500 105.260,351.500 105.182 C 351.500 105.105,351.669 105.040,351.875 105.037 C 352.081 105.035,352.475 104.939,352.750 104.824 C 353.025 104.709,353.325 104.600,353.417 104.583 C 353.508 104.565,353.621 104.533,353.667 104.511 C 353.712 104.490,353.900 104.450,354.083 104.423 C 354.267 104.396,355.317 104.199,356.417 103.986 C 359.026 103.481,363.709 103.439,366.167 103.899 C 367.037 104.062,367.903 104.212,368.090 104.233 C 368.278 104.254,368.521 104.327,368.632 104.395 C 368.743 104.464,368.903 104.477,368.988 104.424 C 369.074 104.371,369.189 104.401,369.244 104.490 C 369.299 104.579,369.447 104.613,369.572 104.565 C 369.697 104.517,369.850 104.559,369.911 104.658 C 369.973 104.757,370.088 104.799,370.167 104.750 C 370.246 104.701,370.355 104.734,370.410 104.823 C 370.466 104.912,370.621 104.943,370.755 104.892 C 370.890 104.840,371.000 104.885,371.000 104.992 C 371.000 105.099,371.083 105.135,371.185 105.072 C 371.287 105.009,371.436 105.061,371.516 105.187 C 371.599 105.318,371.663 87.719,371.664 64.147 C 371.667 20.160,371.693 21.746,370.912 19.104 C 370.780 18.658,370.713 18.226,370.763 18.146 C 370.812 18.066,370.766 18.000,370.659 18.000 C 370.552 18.000,370.508 17.887,370.560 17.750 C 370.613 17.612,370.577 17.500,370.481 17.500 C 370.384 17.500,370.337 17.407,370.375 17.293 C 370.412 17.179,370.339 16.982,370.212 16.855 C 370.085 16.728,370.020 16.521,370.069 16.395 C 370.117 16.269,370.079 16.167,369.985 16.167 C 369.891 16.167,369.860 16.092,369.917 16.000 C 369.973 15.908,369.936 15.833,369.833 15.833 C 369.731 15.833,369.693 15.758,369.750 15.667 C 369.807 15.575,369.785 15.500,369.701 15.500 C 369.618 15.500,369.301 14.956,368.996 14.292 C 368.692 13.627,368.365 13.031,368.268 12.967 C 368.172 12.904,368.141 12.803,368.200 12.744 C 368.259 12.685,368.088 12.407,367.821 12.127 C 367.553 11.847,367.333 11.524,367.333 11.410 C 367.333 11.296,367.221 11.159,367.083 11.106 C 366.946 11.054,366.833 10.914,366.833 10.795 C 366.833 10.677,366.683 10.487,366.500 10.372 C 366.317 10.258,366.167 10.014,366.167 9.832 C 366.167 9.649,366.068 9.500,365.947 9.500 C 365.827 9.500,365.147 8.919,364.437 8.208 C 362.799 6.569,362.448 6.250,362.286 6.250 C 362.213 6.250,362.101 6.175,362.036 6.083 C 361.970 5.991,361.712 5.811,361.461 5.681 C 361.211 5.552,360.857 5.309,360.676 5.140 C 360.495 4.971,360.310 4.833,360.264 4.833 C 360.219 4.833,359.784 4.598,359.299 4.311 C 358.335 3.740,355.986 2.695,355.432 2.591 C 355.240 2.554,355.065 2.510,355.042 2.492 C 355.019 2.473,354.931 2.449,354.847 2.437 C 354.763 2.426,354.643 2.366,354.581 2.303 C 354.518 2.241,354.362 2.230,354.234 2.279 C 354.105 2.329,354.000 2.281,354.000 2.173 C 354.000 2.053,353.871 2.019,353.667 2.083 C 353.480 2.143,353.333 2.113,353.333 2.016 C 353.333 1.921,353.224 1.886,353.091 1.937 C 352.958 1.988,352.752 1.969,352.633 1.895 C 352.514 1.821,352.248 1.782,352.042 1.809 C 351.835 1.835,351.667 1.769,351.667 1.661 C 351.667 1.533,351.517 1.501,351.242 1.570 C 351.009 1.629,350.753 1.637,350.674 1.588 C 350.427 1.435,25.000 1.408,25.000 1.560 M69.762 28.833 C 70.057 28.833,71.324 29.999,71.593 30.518 C 71.920 31.151,71.969 66.929,71.644 67.551 C 71.342 68.128,70.201 69.150,69.703 69.290 C 69.115 69.454,27.058 69.456,26.471 69.292 C 25.827 69.111,25.041 68.395,24.618 67.604 L 24.250 66.917 24.205 49.586 C 24.156 30.934,24.153 30.997,25.023 29.941 C 26.087 28.651,24.197 28.745,48.164 28.792 C 59.945 28.814,69.664 28.833,69.762 28.833 M134.612 28.913 C 135.191 29.052,136.022 29.846,136.353 30.576 C 136.733 31.412,136.845 65.949,136.472 67.193 C 136.252 67.930,135.599 68.680,134.797 69.118 C 134.145 69.474,93.221 69.680,91.606 69.335 C 90.554 69.110,89.942 68.662,89.376 67.697 L 88.917 66.917 88.917 49.250 C 88.917 30.195,88.885 30.892,89.796 29.809 C 90.747 28.679,89.223 28.746,112.879 28.788 C 124.633 28.808,134.413 28.864,134.612 28.913 M199.540 29.017 C 200.130 29.261,201.122 30.360,201.287 30.954 C 201.610 32.109,201.436 66.881,201.104 67.500 C 200.707 68.239,199.749 69.136,199.184 69.295 C 198.137 69.589,156.115 69.434,155.566 69.134 C 154.831 68.731,154.048 67.782,153.843 67.046 C 153.607 66.196,153.600 31.996,153.836 31.147 C 154.088 30.240,154.672 29.482,155.417 29.096 C 156.205 28.687,198.559 28.611,199.540 29.017 M264.735 29.289 C 266.188 30.316,266.076 28.792,266.135 48.500 C 266.193 67.931,266.228 67.250,265.110 68.413 C 263.999 69.568,265.234 69.512,241.885 69.462 C 219.032 69.413,220.472 69.473,219.443 68.521 C 218.437 67.589,218.495 68.798,218.495 49.083 C 218.495 29.369,218.437 30.578,219.443 29.645 C 220.471 28.693,219.024 28.747,242.449 28.789 L 264.083 28.828 264.735 29.289 M328.779 28.913 C 329.328 29.045,330.143 29.800,330.507 30.514 C 330.825 31.137,330.833 31.616,330.833 49.050 L 330.833 66.948 330.446 67.682 C 330.232 68.086,329.738 68.642,329.348 68.917 L 328.638 69.417 307.111 69.417 C 282.598 69.417,284.766 69.551,283.789 67.977 L 283.327 67.235 283.327 49.031 C 283.327 29.379,283.283 30.388,284.192 29.562 C 285.135 28.707,283.938 28.747,306.949 28.788 C 318.756 28.808,328.580 28.865,328.779 28.913 M69.542 90.071 C 70.432 90.389,71.242 91.053,71.563 91.731 C 71.815 92.262,71.839 93.901,71.839 110.447 L 71.839 128.581 71.372 129.247 C 70.879 129.947,69.886 130.719,69.658 130.578 C 69.584 130.532,69.476 130.571,69.418 130.664 C 69.348 130.777,62.314 130.833,48.176 130.833 L 27.038 130.833 26.147 130.368 C 25.498 130.029,25.118 129.681,24.753 129.089 L 24.250 128.276 24.250 110.346 C 24.250 90.406,24.155 92.041,25.382 90.863 C 26.496 89.791,25.227 89.848,48.083 89.848 C 65.066 89.848,69.032 89.889,69.542 90.071 M134.226 90.014 C 135.103 90.257,136.288 91.380,136.501 92.169 C 136.653 92.735,136.651 127.983,136.498 128.654 C 136.399 129.091,134.905 130.500,134.540 130.500 C 134.346 130.500,134.140 130.575,134.083 130.667 C 133.935 130.907,91.725 130.896,91.576 130.655 C 91.516 130.557,91.367 130.516,91.245 130.562 C 90.857 130.711,89.730 129.735,89.314 128.890 L 88.917 128.083 88.872 110.678 C 88.822 91.200,88.771 92.117,89.970 90.946 C 91.165 89.779,89.721 89.849,112.750 89.842 C 127.059 89.837,133.785 89.891,134.226 90.014 M199.420 90.193 C 200.063 90.546,200.788 91.270,201.140 91.913 C 201.393 92.373,201.417 93.966,201.417 110.333 L 201.417 128.250 201.043 128.949 C 200.619 129.743,199.720 130.500,199.202 130.500 C 199.010 130.500,198.807 130.575,198.750 130.667 C 198.682 130.776,191.418 130.833,177.500 130.833 C 163.582 130.833,156.318 130.776,156.250 130.667 C 156.193 130.575,155.989 130.500,155.795 130.500 C 155.297 130.500,154.114 129.203,153.870 128.391 C 153.575 127.405,153.576 93.259,153.872 92.269 C 154.138 91.377,155.248 90.265,156.098 90.039 C 157.333 89.710,198.808 89.857,199.420 90.193 M263.583 90.017 C 264.669 90.291,265.606 91.171,265.913 92.207 C 266.233 93.285,266.301 126.987,265.985 128.239 C 265.752 129.167,264.955 130.127,264.095 130.518 C 263.274 130.891,221.000 131.019,221.000 130.649 C 221.000 130.547,220.889 130.507,220.754 130.559 C 220.406 130.692,219.171 129.697,218.805 128.987 C 218.511 128.417,218.497 127.565,218.495 110.341 L 218.493 92.292 218.912 91.577 C 219.333 90.857,220.118 90.253,220.961 89.999 C 221.689 89.780,262.710 89.797,263.583 90.017 M359.106 110.450 C 359.077 110.479,358.621 110.544,358.093 110.594 C 357.565 110.644,356.410 110.875,355.525 111.108 C 354.640 111.341,353.842 111.545,353.750 111.562 C 353.658 111.579,353.490 111.651,353.375 111.723 C 353.260 111.794,353.166 111.792,353.164 111.718 C 353.163 111.644,353.100 111.681,353.024 111.800 C 352.949 111.919,352.725 112.029,352.527 112.044 C 352.329 112.059,352.167 112.120,352.167 112.179 C 352.167 112.307,350.642 112.922,350.458 112.869 C 350.390 112.849,350.333 112.913,350.333 113.010 C 350.333 113.107,350.258 113.140,350.167 113.083 C 350.075 113.027,350.000 113.064,350.000 113.167 C 350.000 113.269,349.925 113.307,349.833 113.250 C 349.742 113.193,349.667 113.221,349.667 113.312 C 349.667 113.403,349.504 113.529,349.304 113.592 C 349.105 113.656,348.862 113.776,348.763 113.860 C 348.444 114.131,346.139 115.500,346.002 115.500 C 345.929 115.500,345.822 115.623,345.764 115.774 C 345.706 115.924,345.621 116.010,345.575 115.964 C 345.529 115.918,345.216 116.132,344.880 116.440 C 344.543 116.748,344.170 117.000,344.051 117.000 C 343.931 117.000,343.833 117.116,343.833 117.259 C 343.833 117.401,343.571 117.627,343.250 117.761 C 342.929 117.895,342.667 118.071,342.667 118.152 C 342.667 118.363,339.972 121.080,339.638 121.207 C 339.485 121.265,339.335 121.484,339.305 121.694 C 339.275 121.904,339.063 122.168,338.833 122.282 C 338.604 122.396,338.417 122.571,338.417 122.671 C 338.417 122.771,338.229 122.996,338.000 123.172 C 337.771 123.349,337.639 123.494,337.708 123.496 C 337.845 123.500,335.892 126.189,335.634 126.352 C 335.544 126.408,335.497 126.499,335.527 126.555 C 335.558 126.610,335.435 126.827,335.253 127.036 C 335.071 127.245,334.940 127.473,334.961 127.542 C 334.983 127.610,334.921 127.667,334.823 127.667 C 334.726 127.667,334.690 127.737,334.744 127.823 C 334.797 127.909,334.708 128.057,334.545 128.151 C 334.383 128.246,334.305 128.325,334.371 128.328 C 334.438 128.331,334.071 129.027,333.556 129.875 C 333.041 130.723,332.400 131.903,332.133 132.496 C 331.865 133.090,331.592 133.615,331.527 133.663 C 331.461 133.711,331.191 134.294,330.927 134.958 C 330.663 135.623,330.384 136.167,330.307 136.167 C 330.230 136.167,330.182 136.223,330.201 136.292 C 330.263 136.519,329.810 137.667,329.659 137.667 C 329.577 137.667,329.550 137.769,329.598 137.895 C 329.646 138.021,329.588 138.227,329.468 138.354 C 329.348 138.480,329.237 138.696,329.220 138.833 C 329.204 138.971,328.886 139.927,328.515 140.958 C 328.144 141.990,327.885 142.833,327.940 142.833 C 327.996 142.833,327.958 142.933,327.857 143.055 C 327.756 143.177,327.649 143.437,327.619 143.634 C 327.589 143.830,327.517 144.038,327.460 144.095 C 327.403 144.152,327.397 144.304,327.446 144.433 C 327.495 144.561,327.445 144.667,327.333 144.667 C 327.222 144.667,327.173 144.777,327.225 144.911 C 327.277 145.046,327.250 145.198,327.167 145.250 C 327.083 145.302,327.057 145.454,327.108 145.589 C 327.160 145.723,327.122 145.833,327.023 145.833 C 326.924 145.833,326.887 145.946,326.940 146.083 C 326.992 146.221,326.948 146.333,326.840 146.333 C 326.720 146.333,326.685 146.463,326.750 146.667 C 326.813 146.866,326.780 147.000,326.667 147.000 C 326.553 147.000,326.520 147.134,326.583 147.333 C 326.647 147.533,326.613 147.667,326.500 147.667 C 326.387 147.667,326.353 147.800,326.417 148.000 C 326.480 148.200,326.447 148.333,326.333 148.333 C 326.220 148.333,326.187 148.467,326.250 148.667 C 326.308 148.850,326.283 149.000,326.194 149.000 C 326.104 149.000,326.070 149.150,326.118 149.333 C 326.168 149.522,326.123 149.667,326.016 149.667 C 325.898 149.667,325.866 149.822,325.932 150.083 C 325.999 150.351,325.966 150.500,325.840 150.500 C 325.720 150.500,325.685 150.629,325.750 150.833 C 325.811 151.027,325.780 151.167,325.675 151.167 C 325.565 151.167,325.535 151.330,325.598 151.583 C 325.667 151.857,325.633 152.000,325.500 152.000 C 325.368 152.000,325.333 152.142,325.399 152.406 C 325.455 152.630,325.436 152.853,325.356 152.902 C 325.277 152.952,325.248 153.181,325.292 153.413 C 325.336 153.644,325.302 153.833,325.215 153.833 C 325.129 153.833,325.060 154.077,325.062 154.375 C 325.064 154.673,324.903 156.154,324.703 157.667 C 323.702 165.262,323.810 173.823,324.996 181.065 C 325.085 181.606,325.115 182.115,325.064 182.198 C 325.013 182.280,325.059 182.454,325.166 182.583 C 325.273 182.712,325.312 182.971,325.253 183.159 C 325.185 183.372,325.218 183.500,325.343 183.500 C 325.475 183.500,325.508 183.668,325.442 184.000 C 325.379 184.311,325.410 184.500,325.524 184.500 C 325.624 184.500,325.666 184.650,325.618 184.833 C 325.570 185.016,325.602 185.210,325.689 185.264 C 325.776 185.317,325.801 185.505,325.746 185.681 C 325.686 185.867,325.723 186.000,325.833 186.000 C 325.944 186.000,325.980 186.133,325.921 186.319 C 325.865 186.495,325.901 186.689,326.000 186.750 C 326.099 186.811,326.135 187.005,326.079 187.181 C 326.020 187.367,326.056 187.500,326.167 187.500 C 326.280 187.500,326.313 187.634,326.250 187.833 C 326.187 188.033,326.220 188.167,326.333 188.167 C 326.447 188.167,326.480 188.300,326.417 188.500 C 326.353 188.700,326.387 188.833,326.500 188.833 C 326.613 188.833,326.647 188.967,326.583 189.167 C 326.519 189.371,326.553 189.500,326.673 189.500 C 326.781 189.500,326.827 189.610,326.775 189.745 C 326.723 189.879,326.750 190.032,326.833 190.083 C 326.917 190.135,326.943 190.287,326.892 190.422 C 326.840 190.557,326.889 190.667,327.000 190.667 C 327.111 190.667,327.160 190.777,327.108 190.911 C 327.057 191.046,327.088 191.201,327.177 191.256 C 327.266 191.311,327.299 191.421,327.250 191.500 C 327.201 191.579,327.243 191.694,327.342 191.755 C 327.441 191.817,327.486 191.963,327.441 192.079 C 327.396 192.196,327.462 192.489,327.587 192.729 C 327.711 192.970,327.771 193.167,327.720 193.167 C 327.668 193.167,327.704 193.260,327.799 193.375 C 327.894 193.490,327.978 193.640,327.986 193.708 C 327.994 193.777,328.006 193.852,328.012 193.875 C 328.019 193.898,328.057 194.088,328.096 194.298 C 328.135 194.507,328.429 195.358,328.750 196.189 C 329.070 197.019,329.291 197.767,329.240 197.850 C 329.189 197.932,329.231 198.000,329.333 198.000 C 329.436 198.000,329.473 198.075,329.417 198.167 C 329.360 198.258,329.398 198.333,329.500 198.333 C 329.602 198.333,329.643 198.403,329.590 198.488 C 329.538 198.574,329.572 198.691,329.667 198.750 C 329.761 198.809,329.796 198.926,329.743 199.012 C 329.690 199.097,329.739 199.167,329.851 199.167 C 329.964 199.167,330.009 199.213,329.952 199.270 C 329.896 199.327,329.962 199.486,330.101 199.625 C 330.239 199.763,330.313 199.979,330.265 200.105 C 330.217 200.231,330.241 200.333,330.318 200.333 C 330.474 200.333,330.936 201.342,330.873 201.542 C 330.851 201.610,330.913 201.667,331.010 201.667 C 331.107 201.667,331.140 201.742,331.083 201.833 C 331.027 201.925,331.060 202.000,331.157 202.000 C 331.254 202.000,331.318 202.056,331.298 202.125 C 331.279 202.194,331.746 203.188,332.337 204.333 C 332.927 205.479,333.393 206.473,333.372 206.542 C 333.351 206.610,333.413 206.667,333.510 206.667 C 333.607 206.667,333.645 206.734,333.594 206.816 C 333.543 206.898,333.625 207.012,333.775 207.070 C 333.925 207.127,334.007 207.215,333.958 207.264 C 333.909 207.314,334.048 207.548,334.267 207.785 C 334.487 208.022,334.667 208.283,334.667 208.365 C 334.667 208.447,334.814 208.672,334.994 208.866 C 335.174 209.059,335.287 209.273,335.245 209.341 C 335.203 209.409,335.285 209.510,335.428 209.565 C 335.571 209.619,335.646 209.732,335.595 209.815 C 335.544 209.897,335.622 210.011,335.768 210.067 C 335.920 210.126,335.994 210.276,335.939 210.418 C 335.881 210.569,335.940 210.667,336.089 210.667 C 336.223 210.667,336.333 210.745,336.333 210.841 C 336.333 210.936,336.521 211.217,336.750 211.464 C 336.979 211.711,337.167 211.966,337.167 212.031 C 337.167 212.095,337.429 212.434,337.750 212.782 C 338.071 213.131,338.298 213.513,338.253 213.630 C 338.209 213.748,338.343 213.909,338.552 213.988 C 339.030 214.170,339.477 214.667,339.162 214.667 C 339.045 214.667,339.245 214.881,339.606 215.142 C 340.303 215.647,341.167 216.590,341.167 216.846 C 341.167 216.931,341.268 217.000,341.392 217.000 C 341.517 217.000,342.008 217.412,342.485 217.917 C 342.962 218.421,343.419 218.833,343.500 218.833 C 343.581 218.833,343.746 218.965,343.866 219.125 C 343.986 219.285,344.347 219.599,344.667 219.821 C 344.988 220.043,345.311 220.326,345.385 220.450 C 345.460 220.573,345.591 220.630,345.678 220.576 C 345.765 220.523,345.881 220.596,345.936 220.739 C 345.991 220.883,346.140 221.000,346.268 221.000 C 346.396 221.000,346.500 221.075,346.500 221.167 C 346.500 221.258,346.613 221.333,346.750 221.333 C 346.887 221.333,347.000 221.408,347.000 221.500 C 347.000 221.592,347.084 221.667,347.186 221.667 C 347.288 221.667,347.907 222.000,348.561 222.408 C 350.037 223.328,352.514 224.500,352.983 224.500 C 353.176 224.500,353.333 224.573,353.333 224.661 C 353.333 224.750,353.446 224.780,353.583 224.727 C 353.721 224.674,353.833 224.712,353.833 224.810 C 353.833 224.909,353.946 224.946,354.083 224.894 C 354.221 224.841,354.333 224.878,354.333 224.977 C 354.333 225.076,354.446 225.113,354.583 225.060 C 354.721 225.008,354.833 225.052,354.833 225.160 C 354.833 225.280,354.963 225.315,355.167 225.250 C 355.350 225.192,355.500 225.217,355.500 225.306 C 355.500 225.396,355.650 225.430,355.833 225.382 C 356.017 225.334,356.167 225.371,356.167 225.465 C 356.167 225.559,356.317 225.596,356.500 225.548 C 356.689 225.499,356.833 225.543,356.833 225.650 C 356.833 225.769,356.989 225.801,357.250 225.735 C 357.509 225.670,357.667 225.701,357.667 225.817 C 357.667 225.942,357.889 225.968,358.333 225.897 C 358.700 225.839,359.000 225.857,359.000 225.937 C 359.000 226.017,360.125 226.083,361.500 226.083 C 362.875 226.083,364.000 226.017,364.000 225.936 C 364.000 225.856,364.300 225.830,364.667 225.879 C 365.065 225.932,365.333 225.900,365.333 225.799 C 365.333 225.702,365.511 225.675,365.750 225.735 C 366.003 225.799,366.167 225.769,366.167 225.659 C 366.167 225.556,366.305 225.521,366.486 225.579 C 366.662 225.635,366.851 225.605,366.908 225.514 C 366.964 225.423,367.121 225.390,367.255 225.442 C 367.390 225.493,367.500 225.448,367.500 225.340 C 367.500 225.220,367.629 225.185,367.833 225.250 C 368.037 225.315,368.167 225.280,368.167 225.160 C 368.167 225.052,368.279 225.008,368.417 225.060 C 368.554 225.113,368.667 225.076,368.667 224.977 C 368.667 224.878,368.779 224.841,368.917 224.894 C 369.054 224.946,369.167 224.919,369.167 224.833 C 369.167 224.747,369.279 224.720,369.417 224.773 C 369.554 224.826,369.667 224.788,369.667 224.690 C 369.667 224.591,369.779 224.554,369.917 224.606 C 370.058 224.661,370.167 224.610,370.167 224.490 C 370.167 224.373,370.217 224.328,370.278 224.389 C 370.340 224.451,370.565 224.387,370.778 224.247 C 370.992 224.107,371.167 224.032,371.167 224.082 C 371.167 224.190,373.118 223.216,374.307 222.515 C 374.780 222.237,375.169 222.063,375.172 222.129 C 375.175 222.196,375.254 222.117,375.349 221.955 C 375.443 221.792,375.591 221.703,375.677 221.756 C 375.763 221.810,375.834 221.792,375.834 221.718 C 375.835 221.644,376.116 221.396,376.459 221.167 C 376.803 220.938,377.183 220.656,377.305 220.540 C 377.427 220.425,377.588 220.368,377.663 220.414 C 377.737 220.460,377.841 220.386,377.894 220.249 C 377.947 220.112,378.054 220.000,378.133 220.000 C 378.212 220.000,378.681 219.629,379.174 219.175 C 379.668 218.721,380.106 218.384,380.149 218.426 C 380.260 218.537,381.000 217.810,381.000 217.590 C 381.000 217.351,382.491 215.912,382.878 215.778 C 383.039 215.721,383.242 215.490,383.328 215.263 C 383.415 215.036,383.676 214.726,383.909 214.573 C 384.142 214.420,384.333 214.210,384.334 214.106 C 384.334 214.002,384.521 213.699,384.750 213.432 C 384.979 213.166,385.167 212.885,385.167 212.807 C 385.167 212.730,385.284 212.667,385.427 212.667 C 385.569 212.667,385.648 212.605,385.601 212.529 C 385.554 212.453,385.754 212.134,386.045 211.820 C 386.336 211.507,386.556 211.192,386.535 211.120 C 386.514 211.049,386.610 210.947,386.747 210.895 C 386.885 210.842,386.956 210.731,386.905 210.648 C 386.854 210.565,386.929 210.453,387.072 210.398 C 387.215 210.343,387.290 210.231,387.238 210.148 C 387.187 210.065,387.263 209.953,387.406 209.898 C 387.549 209.843,387.667 209.722,387.667 209.630 C 387.667 209.420,389.196 206.937,389.372 206.861 C 389.444 206.830,389.460 206.736,389.408 206.652 C 389.356 206.569,389.393 206.500,389.490 206.500 C 389.587 206.500,389.667 206.393,389.667 206.262 C 389.667 206.131,389.785 205.906,389.929 205.762 C 390.073 205.618,390.129 205.499,390.054 205.497 C 389.978 205.496,389.992 205.440,390.083 205.372 C 390.263 205.240,392.667 200.442,392.667 200.216 C 392.667 200.140,392.817 199.798,393.000 199.456 C 393.184 199.113,393.287 198.833,393.230 198.833 C 393.173 198.833,393.209 198.733,393.311 198.610 C 393.414 198.487,393.448 198.337,393.387 198.276 C 393.327 198.216,393.370 198.167,393.482 198.167 C 393.594 198.167,393.640 198.092,393.583 198.000 C 393.527 197.908,393.563 197.833,393.664 197.833 C 393.765 197.833,393.832 197.740,393.813 197.625 C 393.760 197.300,394.020 196.500,394.180 196.500 C 394.258 196.500,394.280 196.387,394.227 196.250 C 394.174 196.112,394.198 196.000,394.280 196.000 C 394.362 196.000,394.442 195.832,394.457 195.627 C 394.473 195.423,394.559 195.230,394.650 195.200 C 394.740 195.170,394.773 195.037,394.723 194.906 C 394.672 194.774,394.722 194.667,394.833 194.667 C 394.945 194.667,394.993 194.554,394.940 194.417 C 394.887 194.279,394.924 194.167,395.023 194.167 C 395.122 194.167,395.159 194.054,395.106 193.917 C 395.054 193.779,395.081 193.667,395.167 193.667 C 395.253 193.667,395.280 193.554,395.227 193.417 C 395.174 193.279,395.212 193.167,395.310 193.167 C 395.409 193.167,395.446 193.054,395.394 192.917 C 395.341 192.779,395.374 192.667,395.467 192.667 C 395.559 192.667,395.596 192.517,395.548 192.333 C 395.500 192.150,395.529 192.000,395.612 192.000 C 395.694 192.000,395.767 191.869,395.774 191.708 C 395.780 191.548,396.057 190.409,396.389 189.177 C 396.721 187.945,396.957 186.902,396.914 186.859 C 396.871 186.816,396.919 186.681,397.020 186.559 C 397.121 186.437,397.161 186.227,397.109 186.091 C 397.057 185.955,397.089 185.798,397.181 185.741 C 397.272 185.685,397.303 185.501,397.250 185.333 C 397.197 185.165,397.234 184.978,397.333 184.917 C 397.432 184.855,397.470 184.668,397.417 184.500 C 397.363 184.332,397.401 184.145,397.500 184.083 C 397.599 184.022,397.637 183.835,397.583 183.667 C 397.530 183.499,397.571 183.309,397.673 183.246 C 397.776 183.182,397.816 182.956,397.763 182.742 C 397.709 182.528,397.747 182.303,397.846 182.242 C 397.946 182.181,397.983 181.956,397.930 181.742 C 397.876 181.528,397.905 181.309,397.994 181.254 C 398.083 181.199,398.113 180.941,398.061 180.680 C 398.008 180.413,398.046 180.158,398.150 180.093 C 398.254 180.030,398.290 179.800,398.232 179.571 C 398.176 179.346,398.217 179.056,398.325 178.927 C 398.446 178.781,398.477 178.466,398.408 178.096 C 398.331 177.688,398.358 177.500,398.492 177.500 C 398.629 177.500,398.654 177.276,398.574 176.748 C 398.501 176.258,398.530 175.914,398.659 175.759 C 398.788 175.604,398.818 175.260,398.745 174.772 C 398.683 174.361,398.696 173.925,398.775 173.803 C 398.891 173.622,398.983 170.939,398.966 168.167 C 398.943 164.289,398.894 162.881,398.774 162.696 C 398.696 162.574,398.682 162.068,398.744 161.571 C 398.826 160.916,398.802 160.667,398.657 160.667 C 398.513 160.667,398.488 160.432,398.568 159.833 C 398.645 159.248,398.621 159.000,398.484 159.000 C 398.352 159.000,398.324 158.791,398.396 158.343 C 398.458 157.956,398.430 157.643,398.329 157.580 C 398.229 157.519,398.201 157.235,398.263 156.904 C 398.337 156.514,398.308 156.333,398.172 156.333 C 398.040 156.333,398.009 156.172,398.080 155.849 C 398.143 155.561,398.111 155.319,398.000 155.250 C 397.889 155.181,397.857 154.939,397.920 154.651 C 397.987 154.346,397.959 154.167,397.843 154.167 C 397.734 154.167,397.700 154.007,397.760 153.768 C 397.815 153.549,397.779 153.319,397.680 153.258 C 397.580 153.196,397.544 152.964,397.601 152.740 C 397.666 152.482,397.631 152.333,397.507 152.333 C 397.385 152.333,397.352 152.204,397.419 151.992 C 397.479 151.804,397.440 151.545,397.333 151.416 C 397.226 151.287,397.183 151.108,397.238 151.019 C 397.294 150.929,397.266 150.811,397.177 150.756 C 397.088 150.701,397.057 150.545,397.109 150.409 C 397.161 150.273,397.121 150.063,397.020 149.941 C 396.919 149.819,396.871 149.684,396.914 149.641 C 396.957 149.598,396.720 148.555,396.386 147.323 C 396.053 146.091,395.784 144.915,395.789 144.708 C 395.794 144.502,395.723 144.333,395.631 144.333 C 395.539 144.333,395.508 144.221,395.560 144.083 C 395.613 143.946,395.576 143.833,395.477 143.833 C 395.378 143.833,395.341 143.721,395.394 143.583 C 395.446 143.446,395.409 143.333,395.310 143.333 C 395.212 143.333,395.174 143.221,395.227 143.083 C 395.280 142.946,395.242 142.833,395.144 142.833 C 395.045 142.833,395.008 142.721,395.060 142.583 C 395.113 142.446,395.076 142.333,394.977 142.333 C 394.878 142.333,394.841 142.221,394.894 142.083 C 394.946 141.946,394.923 141.833,394.841 141.833 C 394.681 141.833,394.412 140.883,394.476 140.542 C 394.497 140.427,394.432 140.333,394.331 140.333 C 394.230 140.333,394.193 140.258,394.250 140.167 C 394.307 140.075,394.266 140.000,394.159 140.000 C 394.052 140.000,394.008 139.887,394.060 139.750 C 394.113 139.612,394.079 139.500,393.985 139.500 C 393.891 139.500,393.857 139.430,393.910 139.345 C 393.962 139.260,393.928 139.142,393.833 139.083 C 393.739 139.025,393.704 138.907,393.757 138.822 C 393.810 138.736,393.774 138.667,393.677 138.667 C 393.579 138.667,393.500 138.479,393.500 138.250 C 393.500 138.021,393.412 137.833,393.306 137.833 C 393.199 137.833,393.158 137.786,393.216 137.728 C 393.274 137.670,393.233 137.464,393.125 137.270 C 393.017 137.076,392.945 136.860,392.965 136.792 C 392.984 136.723,392.938 136.667,392.861 136.667 C 392.785 136.667,392.721 136.573,392.719 136.458 C 392.717 136.344,392.240 135.275,391.660 134.083 C 391.079 132.892,390.618 131.860,390.635 131.792 C 390.652 131.723,390.587 131.667,390.490 131.667 C 390.393 131.667,390.360 131.592,390.417 131.500 C 390.473 131.408,390.436 131.333,390.333 131.333 C 390.231 131.333,390.193 131.258,390.250 131.167 C 390.307 131.075,390.282 131.000,390.195 131.000 C 390.109 131.000,389.905 130.721,389.743 130.379 C 389.581 130.038,389.348 129.657,389.224 129.534 C 389.101 129.410,389.000 129.202,389.000 129.071 C 389.000 128.940,388.921 128.833,388.823 128.833 C 388.726 128.833,388.693 128.758,388.750 128.667 C 388.807 128.575,388.774 128.500,388.677 128.500 C 388.579 128.500,388.500 128.423,388.500 128.330 C 388.500 128.114,387.701 126.880,387.207 126.333 C 386.999 126.104,386.866 125.823,386.910 125.708 C 386.954 125.594,386.879 125.500,386.745 125.500 C 386.610 125.500,386.500 125.396,386.500 125.268 C 386.500 125.140,386.387 124.992,386.250 124.940 C 386.113 124.887,386.000 124.737,386.000 124.606 C 386.000 124.476,385.887 124.326,385.750 124.273 C 385.613 124.220,385.500 124.080,385.500 123.962 C 385.500 123.844,385.343 123.649,385.150 123.529 C 384.958 123.408,384.843 123.268,384.895 123.216 C 384.946 123.165,384.804 122.977,384.578 122.799 C 384.352 122.621,384.167 122.383,384.167 122.269 C 384.167 122.156,383.936 121.892,383.654 121.684 C 383.308 121.428,383.176 121.217,383.246 121.033 C 383.304 120.883,383.297 120.814,383.232 120.879 C 383.166 120.945,382.974 120.772,382.805 120.494 C 382.636 120.216,382.367 119.944,382.207 119.888 C 382.047 119.833,381.654 119.538,381.333 119.232 C 381.012 118.927,380.448 118.389,380.079 118.037 C 379.710 117.685,379.271 117.345,379.105 117.281 C 378.938 117.217,378.761 117.011,378.712 116.823 C 378.656 116.608,378.532 116.516,378.379 116.575 C 378.229 116.632,378.104 116.545,378.051 116.346 C 378.002 116.155,377.872 116.059,377.735 116.112 C 377.607 116.161,377.457 116.081,377.400 115.934 C 377.344 115.787,377.221 115.667,377.127 115.667 C 377.033 115.667,376.591 115.404,376.145 115.083 C 375.698 114.763,375.258 114.500,375.166 114.500 C 375.075 114.500,375.000 114.433,375.000 114.351 C 375.000 114.270,374.813 114.156,374.583 114.098 C 374.354 114.041,374.167 113.916,374.167 113.820 C 374.167 113.725,374.092 113.693,374.000 113.750 C 373.908 113.807,373.833 113.779,373.833 113.689 C 373.833 113.599,373.571 113.439,373.250 113.333 C 372.929 113.227,372.667 113.067,372.667 112.977 C 372.667 112.887,372.592 112.860,372.500 112.917 C 372.408 112.973,372.333 112.936,372.333 112.833 C 372.333 112.731,372.258 112.693,372.167 112.750 C 372.075 112.807,372.000 112.769,372.000 112.667 C 372.000 112.564,371.925 112.527,371.833 112.583 C 371.742 112.640,371.667 112.602,371.667 112.500 C 371.667 112.398,371.592 112.360,371.500 112.417 C 371.408 112.473,371.333 112.443,371.333 112.348 C 371.333 112.254,371.221 112.220,371.083 112.273 C 370.946 112.326,370.833 112.298,370.833 112.212 C 370.833 112.126,370.740 112.051,370.625 112.047 C 370.510 112.042,369.724 111.807,368.878 111.525 C 366.373 110.690,359.610 109.946,359.106 110.450 M364.084 130.834 C 364.141 130.926,364.362 130.957,364.575 130.904 C 364.789 130.850,365.012 130.884,365.070 130.979 C 365.129 131.074,365.287 131.110,365.422 131.058 C 365.557 131.007,365.667 131.045,365.667 131.144 C 365.667 131.242,365.779 131.280,365.917 131.227 C 366.054 131.174,366.167 131.218,366.167 131.325 C 366.167 131.432,366.242 131.473,366.333 131.417 C 366.425 131.360,366.500 131.393,366.500 131.490 C 366.500 131.587,366.556 131.649,366.625 131.627 C 366.829 131.562,367.833 132.028,367.833 132.187 C 367.833 132.267,367.921 132.333,368.028 132.333 C 368.730 132.333,371.444 135.834,371.048 136.230 C 370.991 136.287,371.040 136.333,371.157 136.333 C 371.277 136.333,371.327 136.442,371.273 136.583 C 371.220 136.721,371.255 136.833,371.350 136.833 C 371.447 136.833,371.476 136.980,371.417 137.167 C 371.354 137.364,371.387 137.500,371.496 137.500 C 371.617 137.500,371.645 137.698,371.576 138.064 C 371.512 138.404,371.542 138.673,371.652 138.741 C 371.911 138.901,371.908 153.500,371.648 153.500 C 371.527 153.500,371.501 153.701,371.572 154.083 C 371.635 154.418,371.614 154.667,371.523 154.667 C 371.436 154.667,371.404 154.817,371.452 155.000 C 371.500 155.183,371.457 155.333,371.358 155.333 C 371.259 155.333,371.220 155.446,371.273 155.583 C 371.327 155.725,371.277 155.833,371.157 155.833 C 371.040 155.833,370.991 155.880,371.048 155.937 C 371.196 156.085,370.382 157.633,369.907 158.108 C 369.687 158.328,369.428 158.656,369.331 158.837 C 369.234 159.018,369.045 159.167,368.911 159.167 C 368.777 159.167,368.667 159.270,368.667 159.397 C 368.667 159.786,365.663 161.205,364.787 161.229 C 364.370 161.240,363.971 161.306,363.903 161.375 C 363.700 161.578,359.203 161.526,359.075 161.320 C 359.014 161.221,358.798 161.181,358.597 161.232 C 357.906 161.405,355.102 160.306,354.783 159.738 C 354.710 159.607,354.564 159.500,354.458 159.500 C 354.244 159.500,353.167 158.506,353.167 158.309 C 353.167 158.240,352.981 157.983,352.753 157.738 C 352.526 157.492,352.380 157.226,352.430 157.146 C 352.479 157.066,352.436 157.000,352.333 157.000 C 352.231 157.000,352.193 156.925,352.250 156.833 C 352.307 156.742,352.269 156.667,352.167 156.667 C 352.064 156.667,352.027 156.592,352.083 156.500 C 352.140 156.408,352.102 156.333,352.000 156.333 C 351.898 156.333,351.857 156.264,351.910 156.178 C 351.962 156.093,351.928 155.975,351.833 155.917 C 351.739 155.858,351.704 155.740,351.757 155.655 C 351.810 155.570,351.766 155.500,351.659 155.500 C 351.552 155.500,351.505 155.395,351.554 155.266 C 351.603 155.138,351.598 154.987,351.543 154.932 C 351.298 154.687,351.256 137.448,351.499 137.208 C 351.523 137.185,351.560 137.092,351.583 137.000 C 351.606 136.908,351.644 136.796,351.667 136.750 C 351.690 136.704,351.727 136.592,351.750 136.500 C 351.773 136.408,351.810 136.277,351.832 136.208 C 351.855 136.140,351.864 136.027,351.853 135.958 C 351.842 135.890,351.913 135.833,352.010 135.833 C 352.107 135.833,352.140 135.758,352.083 135.667 C 352.027 135.575,352.064 135.500,352.167 135.500 C 352.269 135.500,352.307 135.425,352.250 135.333 C 352.193 135.242,352.231 135.167,352.333 135.167 C 352.436 135.167,352.473 135.092,352.417 135.000 C 352.360 134.908,352.428 134.833,352.568 134.833 C 352.726 134.833,352.786 134.738,352.727 134.583 C 352.664 134.419,352.732 134.333,352.927 134.333 C 353.089 134.333,353.175 134.286,353.117 134.228 C 352.658 133.769,356.595 130.897,357.184 131.261 C 357.266 131.312,357.333 131.265,357.333 131.157 C 357.333 131.043,357.473 130.998,357.667 131.048 C 357.850 131.096,358.000 131.069,358.000 130.989 C 358.000 130.908,358.225 130.887,358.500 130.942 C 358.819 131.005,359.000 130.974,359.000 130.854 C 359.000 130.610,363.933 130.590,364.084 130.834 M359.167 137.708 C 359.167 137.777,359.086 137.833,358.988 137.833 C 358.273 137.833,358.253 138.035,358.199 145.571 C 358.148 152.853,358.201 154.140,358.553 154.244 C 358.662 154.275,358.900 154.352,359.083 154.414 C 359.267 154.476,360.392 154.532,361.583 154.538 L 363.750 154.549 364.375 153.941 L 365.000 153.333 365.000 146.083 C 365.000 141.361,364.942 138.833,364.833 138.833 C 364.742 138.833,364.667 138.733,364.667 138.611 C 364.667 137.846,363.846 137.583,361.458 137.583 C 360.198 137.583,359.167 137.640,359.167 137.708 M294.167 151.328 C 294.167 151.417,294.260 151.454,294.375 151.411 C 294.926 151.204,296.268 152.528,296.644 153.650 C 296.889 154.384,296.917 189.333,296.672 189.333 C 296.583 189.333,296.545 189.427,296.587 189.542 C 296.691 189.829,295.991 191.011,295.583 191.234 C 295.400 191.334,295.195 191.492,295.128 191.583 C 295.060 191.675,295.004 191.682,295.003 191.599 C 295.001 191.516,294.842 191.591,294.649 191.766 C 294.228 192.147,62.189 192.364,60.770 191.984 C 59.911 191.755,58.754 190.593,58.511 189.716 C 58.195 188.578,58.272 154.136,58.592 153.370 C 58.935 152.548,59.600 151.861,60.417 151.483 C 61.179 151.130,294.167 150.976,294.167 151.328 M0.014 216.242 C 0.005 216.669,0.057 216.843,0.162 216.738 C 0.263 216.637,0.268 216.386,0.177 216.079 C 0.030 215.589,0.028 215.591,0.014 216.242 " stroke="none" fill="#040404" fill-rule="evenodd"></path><path id="path2" d="M27.083 1.333 C 26.897 1.413,97.867 1.474,187.833 1.472 C 276.429 1.469,348.729 1.407,348.500 1.333 C 347.934 1.152,27.505 1.152,27.083 1.333 M364.333 8.083 C 364.831 8.587,365.276 9.000,365.322 9.000 C 365.368 9.000,364.998 8.587,364.500 8.083 C 364.002 7.579,363.557 7.167,363.511 7.167 C 363.466 7.167,363.835 7.579,364.333 8.083 M10.906 8.208 L 10.417 8.750 10.958 8.260 C 11.256 7.991,11.500 7.748,11.500 7.719 C 11.500 7.590,11.362 7.703,10.906 8.208 M368.673 13.453 C 368.663 13.770,369.211 14.833,369.385 14.833 C 369.471 14.833,369.459 14.734,369.358 14.614 C 369.258 14.493,369.064 14.136,368.928 13.822 C 368.791 13.507,368.677 13.341,368.673 13.453 M6.116 14.752 C 5.963 15.072,5.873 15.333,5.915 15.333 C 6.029 15.333,6.535 14.313,6.459 14.237 C 6.423 14.200,6.268 14.432,6.116 14.752 M371.749 64.833 C 371.749 87.154,371.768 96.285,371.792 85.125 C 371.815 73.965,371.815 55.702,371.792 44.542 C 371.768 33.381,371.749 42.512,371.749 64.833 M89.906 29.708 L 89.417 30.250 89.958 29.760 C 90.256 29.491,90.500 29.248,90.500 29.219 C 90.500 29.090,90.362 29.203,89.906 29.708 M135.167 29.219 C 135.167 29.248,135.410 29.491,135.708 29.760 L 136.250 30.250 135.760 29.708 C 135.304 29.203,135.167 29.090,135.167 29.219 M284.073 29.708 L 283.583 30.250 284.125 29.760 C 284.630 29.304,284.743 29.167,284.615 29.167 C 284.586 29.167,284.342 29.410,284.073 29.708 M266.080 49.083 C 266.080 58.708,266.100 62.621,266.125 57.779 C 266.150 52.936,266.150 45.061,266.125 40.279 C 266.100 35.496,266.080 39.458,266.080 49.083 M24.247 49.083 C 24.247 58.617,24.267 62.492,24.292 57.696 C 24.316 52.899,24.316 45.099,24.292 40.362 C 24.267 35.626,24.247 39.550,24.247 49.083 M88.914 49.167 C 88.914 58.654,88.934 62.535,88.958 57.792 C 88.983 53.048,88.983 45.285,88.958 40.542 C 88.934 35.798,88.914 39.679,88.914 49.167 M264.667 90.552 C 264.667 90.581,264.910 90.825,265.208 91.094 L 265.750 91.583 265.260 91.042 C 264.804 90.537,264.667 90.423,264.667 90.552 M266.080 110.333 C 266.080 120.004,266.100 123.960,266.125 119.125 C 266.150 114.290,266.150 106.377,266.125 101.542 C 266.100 96.706,266.080 100.662,266.080 110.333 M24.247 110.333 C 24.247 119.912,24.267 123.831,24.292 119.042 C 24.316 114.252,24.316 106.415,24.292 101.625 C 24.267 96.835,24.247 100.754,24.247 110.333 M88.914 110.333 C 88.914 119.912,88.934 123.831,88.958 119.042 C 88.983 114.252,88.983 106.415,88.958 101.625 C 88.934 96.835,88.914 100.754,88.914 110.333 M360.963 110.456 C 361.355 110.491,361.955 110.490,362.296 110.454 C 362.637 110.419,362.317 110.390,361.583 110.390 C 360.850 110.391,360.571 110.420,360.963 110.456 M334.396 117.042 C 333.904 117.603,333.617 118.000,333.702 118.000 C 333.743 118.000,334.019 117.700,334.313 117.333 C 334.885 116.622,334.943 116.417,334.396 117.042 M48.167 130.667 L 26.917 130.752 48.115 130.793 C 62.112 130.820,69.349 130.777,69.417 130.667 C 69.473 130.575,69.496 130.518,69.468 130.541 C 69.440 130.563,59.854 130.620,48.167 130.667 M156.309 130.709 C 156.378 130.778,165.956 130.816,177.592 130.792 L 198.750 130.750 177.467 130.667 C 165.761 130.621,156.240 130.640,156.309 130.709 M102.208 130.792 C 108.052 130.816,117.615 130.816,123.458 130.792 C 129.302 130.767,124.521 130.747,112.833 130.747 C 101.146 130.747,96.365 130.767,102.208 130.792 M231.638 130.792 C 237.535 130.816,247.135 130.816,252.971 130.792 C 258.808 130.767,253.983 130.747,242.250 130.747 C 230.517 130.748,225.741 130.767,231.638 130.792 M295.721 130.792 C 301.205 130.816,310.130 130.816,315.555 130.792 C 320.979 130.767,316.492 130.747,305.583 130.747 C 294.675 130.747,290.237 130.767,295.721 130.792 M331.841 132.771 C 331.480 133.589,331.396 133.946,331.681 133.457 C 331.951 132.993,332.346 132.000,332.260 132.000 C 332.217 132.000,332.029 132.347,331.841 132.771 M323.527 134.590 C 323.248 135.203,323.301 135.334,323.603 134.777 C 323.744 134.517,323.828 134.273,323.790 134.235 C 323.752 134.196,323.634 134.357,323.527 134.590 M364.228 138.012 C 364.469 138.202,364.667 138.465,364.667 138.595 C 364.667 138.726,364.744 138.833,364.838 138.833 C 365.089 138.833,364.563 137.893,364.243 137.770 C 363.778 137.592,363.774 137.655,364.228 138.012 M371.583 146.099 C 371.583 150.170,371.640 153.500,371.708 153.500 C 371.777 153.500,371.833 150.204,371.833 146.177 C 371.833 142.149,371.777 138.818,371.708 138.776 C 371.640 138.733,371.583 142.029,371.583 146.099 M358.076 146.167 C 358.076 149.971,358.098 151.527,358.125 149.625 C 358.152 147.723,358.152 144.610,358.125 142.708 C 358.098 140.806,358.076 142.362,358.076 146.167 M369.083 158.833 C 368.917 159.017,368.866 159.167,368.968 159.167 C 369.071 159.167,369.235 159.017,369.333 158.833 C 369.431 158.650,369.483 158.500,369.448 158.500 C 369.414 158.500,369.249 158.650,369.083 158.833 M398.848 166.750 C 398.843 167.117,398.911 167.529,399.000 167.667 C 399.209 167.990,399.209 166.903,399.000 166.417 C 398.887 166.155,398.855 166.226,398.848 166.750 M317.209 168.917 C 317.211 169.283,317.245 169.414,317.285 169.206 C 317.324 168.999,317.323 168.699,317.281 168.540 C 317.239 168.380,317.207 168.550,317.209 168.917 M398.959 168.833 C 398.893 169.063,398.844 169.512,398.851 169.833 L 398.863 170.417 399.024 169.857 C 399.113 169.550,399.162 169.100,399.133 168.857 L 399.081 168.417 398.959 168.833 M322.635 199.583 C 322.719 199.767,322.830 200.029,322.881 200.167 C 322.961 200.383,322.975 200.381,322.987 200.157 C 322.994 200.014,322.883 199.751,322.741 199.574 C 322.486 199.255,322.484 199.255,322.635 199.583 M331.583 203.167 C 331.726 203.442,331.879 203.667,331.925 203.667 C 331.971 203.667,331.892 203.442,331.750 203.167 C 331.608 202.892,331.454 202.667,331.408 202.667 C 331.362 202.667,331.441 202.892,331.583 203.167 M6.917 204.000 C 7.059 204.275,7.213 204.500,7.259 204.500 C 7.304 204.500,7.226 204.275,7.083 204.000 C 6.941 203.725,6.787 203.500,6.741 203.500 C 6.696 203.500,6.774 203.725,6.917 204.000 M388.867 207.511 C 388.660 207.872,388.524 208.167,388.565 208.167 C 388.680 208.167,389.380 206.991,389.308 206.919 C 389.273 206.884,389.075 207.151,388.867 207.511 M326.541 208.125 C 326.795 208.705,327.332 209.619,327.333 209.472 C 327.334 209.310,326.495 207.667,326.411 207.667 C 326.372 207.667,326.431 207.873,326.541 208.125 M14.977 212.323 C 15.193 212.512,15.449 212.667,15.546 212.667 C 15.751 212.667,15.741 212.658,15.083 212.273 L 14.583 211.980 14.977 212.323 M340.000 215.552 C 340.000 215.581,340.244 215.825,340.542 216.094 L 341.083 216.583 340.594 216.042 C 340.138 215.537,340.000 215.423,340.000 215.552 M381.744 216.708 L 380.917 217.583 381.830 216.750 C 382.332 216.292,382.776 215.898,382.816 215.875 C 382.856 215.852,382.817 215.833,382.730 215.833 C 382.642 215.833,382.199 216.227,381.744 216.708 M361.300 226.200 C 361.456 226.356,361.544 226.356,361.700 226.200 C 361.856 226.044,361.811 226.000,361.500 226.000 C 361.189 226.000,361.144 226.044,361.300 226.200 " stroke="none" fill="#606060" fill-rule="evenodd"></path><path id="path3" d="M201.414 49.000 C 201.414 58.487,201.434 62.369,201.458 57.625 C 201.483 52.881,201.483 45.119,201.458 40.375 C 201.434 35.631,201.414 39.512,201.414 49.000 M24.414 49.250 C 24.414 58.600,24.434 62.401,24.458 57.696 C 24.483 52.991,24.483 45.341,24.458 40.696 C 24.434 36.051,24.414 39.900,24.414 49.250 M37.695 69.458 C 43.349 69.483,52.649 69.483,58.362 69.458 C 64.075 69.434,59.450 69.414,48.083 69.414 C 36.717 69.414,32.042 69.434,37.695 69.458 M102.542 69.458 C 108.202 69.483,117.465 69.483,123.125 69.458 C 128.785 69.434,124.154 69.414,112.833 69.414 C 101.513 69.414,96.881 69.434,102.542 69.458 M167.195 69.458 C 172.849 69.483,182.149 69.483,187.862 69.458 C 193.575 69.434,188.950 69.414,177.583 69.414 C 166.217 69.414,161.542 69.434,167.195 69.458 M231.862 69.458 C 237.515 69.483,246.815 69.483,252.529 69.458 C 258.242 69.434,253.617 69.414,242.250 69.414 C 230.883 69.414,226.209 69.434,231.862 69.458 M296.708 69.458 C 302.369 69.483,311.631 69.483,317.292 69.458 C 322.952 69.434,318.321 69.414,307.000 69.414 C 295.679 69.414,291.048 69.434,296.708 69.458 M24.414 110.250 C 24.414 119.692,24.434 123.530,24.458 118.779 C 24.483 114.028,24.483 106.303,24.458 101.612 C 24.434 96.921,24.414 100.808,24.414 110.250 M201.414 110.333 C 201.414 119.821,201.434 123.702,201.458 118.958 C 201.483 114.215,201.483 106.452,201.458 101.708 C 201.434 96.965,201.414 100.846,201.414 110.333 M371.576 146.167 C 371.576 150.063,371.598 151.656,371.625 149.708 C 371.651 147.760,371.651 144.573,371.625 142.625 C 371.598 140.677,371.576 142.271,371.576 146.167 M103.250 151.291 C 216.786 151.404,294.127 151.404,294.058 151.292 C 294.015 151.223,241.579 151.185,177.532 151.208 C 113.485 151.231,80.058 151.268,103.250 151.291 M360.548 154.623 C 361.078 154.657,361.903 154.656,362.381 154.623 C 362.859 154.589,362.425 154.562,361.417 154.562 C 360.408 154.563,360.017 154.590,360.548 154.623 " stroke="none" fill="#747474" fill-rule="evenodd"></path><path id="path4" d="M26.250 1.333 C 25.796 1.449,25.789 1.461,26.167 1.469 C 26.396 1.473,26.733 1.412,26.917 1.333 C 27.328 1.157,26.944 1.157,26.250 1.333 M14.083 5.431 L 13.583 5.861 14.125 5.502 C 14.423 5.305,14.667 5.112,14.667 5.072 C 14.667 4.947,14.596 4.991,14.083 5.431 M364.333 7.880 C 364.333 7.912,364.558 8.153,364.833 8.417 C 365.108 8.680,365.333 8.821,365.333 8.729 C 365.333 8.638,365.108 8.396,364.833 8.193 C 364.558 7.990,364.333 7.849,364.333 7.880 M26.593 28.922 C 26.415 29.057,26.345 29.167,26.436 29.167 C 26.528 29.167,26.749 29.057,26.926 28.922 C 27.104 28.787,27.175 28.677,27.083 28.677 C 26.992 28.677,26.771 28.787,26.593 28.922 M91.333 28.917 C 91.104 29.048,90.992 29.155,91.083 29.155 C 91.175 29.155,91.438 29.048,91.667 28.917 C 91.896 28.786,92.008 28.678,91.917 28.678 C 91.825 28.678,91.563 28.786,91.333 28.917 M25.256 29.756 C 24.932 30.079,24.667 30.427,24.667 30.528 C 24.667 30.629,24.820 30.517,25.007 30.279 C 25.194 30.041,25.541 29.694,25.779 29.507 C 26.017 29.320,26.129 29.167,26.028 29.167 C 25.927 29.167,25.579 29.432,25.256 29.756 M90.073 29.708 L 89.583 30.250 90.166 29.750 C 90.486 29.475,90.780 29.231,90.819 29.208 C 90.857 29.185,90.815 29.167,90.726 29.167 C 90.636 29.167,90.342 29.410,90.073 29.708 M330.667 49.117 C 330.621 58.943,330.640 66.927,330.709 66.858 C 330.778 66.788,330.816 58.748,330.792 48.991 L 330.750 31.250 330.667 49.117 M37.721 89.958 C 43.480 89.983,52.855 89.983,58.555 89.958 C 64.254 89.934,59.542 89.914,48.083 89.914 C 36.625 89.914,31.962 89.934,37.721 89.958 M102.458 89.958 C 108.165 89.983,117.502 89.983,123.208 89.958 C 128.915 89.934,124.246 89.914,112.833 89.914 C 101.421 89.914,96.752 89.934,102.458 89.958 M167.221 89.958 C 172.980 89.983,182.355 89.983,188.055 89.958 C 193.754 89.934,189.042 89.914,177.583 89.914 C 166.125 89.914,161.462 89.934,167.221 89.958 M231.888 89.958 C 237.647 89.983,247.022 89.983,252.721 89.958 C 258.420 89.934,253.708 89.914,242.250 89.914 C 230.792 89.914,226.129 89.934,231.888 89.958 M296.625 89.958 C 302.331 89.983,311.669 89.983,317.375 89.958 C 323.081 89.934,318.412 89.914,307.000 89.914 C 295.587 89.914,290.919 89.934,296.625 89.958 M330.746 107.083 C 330.746 115.150,330.767 118.474,330.792 114.471 C 330.816 110.467,330.816 103.867,330.792 99.804 C 330.767 95.741,330.746 99.017,330.746 107.083 M360.458 130.790 C 361.031 130.823,361.969 130.823,362.542 130.790 C 363.115 130.758,362.646 130.731,361.500 130.731 C 360.354 130.731,359.885 130.758,360.458 130.790 M360.632 137.624 C 361.208 137.656,362.108 137.656,362.632 137.623 C 363.155 137.590,362.683 137.563,361.583 137.564 C 360.483 137.564,360.055 137.591,360.632 137.624 M296.583 171.651 C 296.583 181.267,296.640 189.100,296.708 189.058 C 296.777 189.015,296.833 181.147,296.833 171.573 C 296.833 162.000,296.777 154.167,296.708 154.167 C 296.640 154.167,296.583 162.035,296.583 171.651 M359.583 161.333 C 359.642 161.429,360.502 161.500,361.593 161.500 C 362.753 161.500,363.500 161.435,363.500 161.333 C 363.500 161.231,362.719 161.167,361.490 161.167 C 360.193 161.167,359.517 161.226,359.583 161.333 M398.867 165.333 C 398.867 165.563,398.927 165.938,399.000 166.167 L 399.133 166.583 399.133 166.167 C 399.133 165.938,399.073 165.563,399.000 165.333 L 398.867 164.917 398.867 165.333 M398.926 170.593 C 398.863 170.927,398.845 171.234,398.886 171.275 C 398.927 171.316,399.011 171.075,399.074 170.741 C 399.137 170.406,399.155 170.099,399.114 170.059 C 399.073 170.018,398.989 170.258,398.926 170.593 M119.458 192.125 C 151.381 192.148,203.619 192.148,235.542 192.125 C 267.465 192.102,241.346 192.083,177.500 192.083 C 113.654 192.083,87.535 192.102,119.458 192.125 M10.583 208.833 C 10.941 209.200,11.272 209.500,11.318 209.500 C 11.363 209.500,11.108 209.200,10.750 208.833 C 10.392 208.467,10.062 208.167,10.016 208.167 C 9.970 208.167,10.225 208.467,10.583 208.833 M342.500 218.083 C 342.811 218.404,343.103 218.667,343.149 218.667 C 343.195 218.667,342.978 218.404,342.667 218.083 C 342.356 217.762,342.064 217.500,342.018 217.500 C 341.972 217.500,342.189 217.762,342.500 218.083 " stroke="none" fill="#7c7c7c" fill-rule="evenodd"></path></g></svg>